<?xml version="1.0" encoding="UTF-8" standalone="no"?>
<svg
   viewBox="0 0 647.68702 651.40324"
   version="1.1"
   id="svg588"
   sodipodi:docname="downstairs.svg"
   width="647.68701"
   height="651.40326"
   inkscape:version="1.3.1 (9b9bdc1480, 2023-11-25, custom)"
   xmlns:inkscape="http://www.inkscape.org/namespaces/inkscape"
   xmlns:sodipodi="http://sodipodi.sourceforge.net/DTD/sodipodi-0.dtd"
   xmlns="http://www.w3.org/2000/svg"
   xmlns:svg="http://www.w3.org/2000/svg">
  <sodipodi:namedview
     id="namedview588"
     pagecolor="#ffffff"
     bordercolor="#000000"
     borderopacity="0.25"
     inkscape:showpageshadow="2"
     inkscape:pageopacity="0.0"
     inkscape:pagecheckerboard="0"
     inkscape:deskcolor="#d1d1d1"
     inkscape:zoom="0.51505087"
     inkscape:cx="-206.77569"
     inkscape:cy="715.4633"
     inkscape:window-width="2880"
     inkscape:window-height="1655"
     inkscape:window-x="0"
     inkscape:window-y="0"
     inkscape:window-maximized="1"
     inkscape:current-layer="uuid-81feccb9-71f7-4577-904b-0fa73a3e915b" />
  <defs
     id="defs1">
    <style
       id="style1">
      .uuid-70525270-1202-42e8-b2c4-606d33069c54 {
        fill: #111d35;
      }

      .uuid-6fbd3b0c-f801-4156-b96f-107b1de650f4 {
        fill: #14213f;
      }

      .uuid-24dc0b03-a769-4367-be06-c6af90555f6a {
        fill: #182752;
      }

      .uuid-46f048f8-ef50-4aac-8b65-b72cfa3237e7 {
        fill: #1d3166;
      }

      .uuid-1f8fc04d-014d-453e-8b78-abef3c658b86 {
        fill: #fff;
      }

      .uuid-e5b04437-6012-43b3-8bd8-203d60afffae {
        fill: #54b848;
      }

      .uuid-b2c42af5-9538-4db0-ae68-72345bea714e {
        opacity: .5;
      }

      .uuid-8b326d10-3d91-49d9-9322-0a4832b86355 {
        opacity: .3;
      }

      .uuid-bf0a3892-98ef-4677-a983-994a86323150 {
        fill: #3a538c;
      }

      .uuid-3374dea4-0b7f-49c1-98b5-1b8d663a8145 {
        fill: #2c4a84;
      }
    </style>
  </defs>
  <g
     id="uuid-81feccb9-71f7-4577-904b-0fa73a3e915b"
     data-name="Layer_4"
     transform="translate(-1068.2539,-932.37151)">
    <g
       id="g22">
      <path
         class="uuid-bf0a3892-98ef-4677-a983-994a86323150"
         d="m 1315.13,1488.18 h 4.91 l -10.29,24.27 h -4.4 l -4.44,-10.95 -4.4,10.95 h -4.35 l -10.34,-24.27 h 4.91 l 7.86,19.35 3.46,-9 -4.21,-10.3 h 4.35 l 2.71,7.61 2.71,-7.61 h 4.4 l -4.16,10.3 3.46,9 7.81,-19.35 z"
         id="path14" />
      <path
         class="uuid-bf0a3892-98ef-4677-a983-994a86323150"
         d="m 1321.68,1505.36 c 0,-1.54 0.44,-2.9 1.33,-4.06 0.89,-1.16 2.12,-2.05 3.69,-2.69 1.57,-0.63 3.37,-0.95 5.4,-0.95 1.09,0 2.2,0.09 3.32,0.26 1.12,0.17 2.14,0.41 3.04,0.73 v -1.53 c 0,-1.69 -0.51,-3.01 -1.54,-3.96 -1.03,-0.95 -2.51,-1.43 -4.44,-1.43 -1.37,0 -2.67,0.23 -3.88,0.7 -1.22,0.47 -2.51,1.17 -3.88,2.1 l -1.68,-3.51 c 1.56,-1.06 3.16,-1.86 4.82,-2.41 1.65,-0.54 3.38,-0.82 5.19,-0.82 3.27,0 5.85,0.86 7.72,2.57 1.87,1.71 2.81,4.14 2.81,7.28 v 9.02 c 0,0.59 0.11,1 0.33,1.25 0.22,0.25 0.58,0.39 1.08,0.42 v 4.12 c -0.47,0.09 -0.88,0.16 -1.24,0.19 -0.36,0.03 -0.66,0.06 -0.91,0.09 -1.12,-0.03 -1.96,-0.31 -2.53,-0.84 -0.56,-0.53 -0.89,-1.15 -0.98,-1.87 l -0.14,-1.4 c -1.03,1.37 -2.38,2.43 -4.05,3.18 -1.67,0.75 -3.34,1.12 -5.03,1.12 -1.69,0 -3.07,-0.33 -4.35,-1 -1.28,-0.66 -2.28,-1.57 -2.99,-2.71 -0.72,-1.14 -1.08,-2.43 -1.08,-3.85 z m 15.57,1.52 c 0.34,-0.43 0.63,-0.84 0.87,-1.24 0.24,-0.4 0.35,-0.77 0.35,-1.1 v -2.71 c -0.87,-0.34 -1.79,-0.59 -2.76,-0.76 -0.97,-0.17 -1.9,-0.25 -2.81,-0.25 -1.9,0 -3.44,0.37 -4.61,1.1 -1.17,0.74 -1.75,1.75 -1.75,3.04 0,0.71 0.19,1.37 0.58,2 0.39,0.63 0.95,1.15 1.68,1.56 0.73,0.41 1.63,0.62 2.69,0.62 1.15,0 2.24,-0.22 3.27,-0.67 1.03,-0.44 1.85,-0.97 2.48,-1.59 z"
         id="path15" />
      <path
         class="uuid-bf0a3892-98ef-4677-a983-994a86323150"
         d="m 1363.53,1492.43 c -1.96,0.03 -3.72,0.48 -5.26,1.36 -1.54,0.87 -2.64,2.1 -3.3,3.69 v 14.97 h -5.14 v -24.27 h 4.72 v 5.24 c 0.87,-1.65 2,-2.99 3.37,-4 1.37,-1.01 2.81,-1.57 4.3,-1.66 h 0.82 c 0.2,0 0.37,0.02 0.49,0.05 v 4.63 z"
         id="path16" />
      <path
         class="uuid-bf0a3892-98ef-4677-a983-994a86323150"
         d="m 1365.78,1500.36 c 0,-2.32 0.48,-4.42 1.43,-6.32 0.95,-1.9 2.25,-3.41 3.91,-4.54 1.65,-1.13 3.55,-1.69 5.71,-1.69 1.9,0 3.61,0.48 5.12,1.45 1.51,0.97 2.67,2.15 3.48,3.55 v -14.5 h 5.14 v 28.34 c 0,0.56 0.11,0.97 0.33,1.24 0.22,0.27 0.58,0.41 1.08,0.44 v 4.12 c -0.94,0.16 -1.68,0.25 -2.25,0.28 -0.97,0 -1.78,-0.29 -2.43,-0.87 -0.65,-0.58 -1.01,-1.25 -1.08,-2.03 l -0.05,-1.78 c -0.97,1.53 -2.24,2.72 -3.81,3.58 -1.57,0.86 -3.22,1.29 -4.93,1.29 -1.71,0 -3.23,-0.33 -4.65,-1 -1.42,-0.66 -2.65,-1.58 -3.69,-2.73 -1.05,-1.16 -1.86,-2.49 -2.43,-3.98 -0.58,-1.5 -0.87,-3.11 -0.87,-4.84 z m 19.64,3.37 v -6.32 c -0.34,-0.98 -0.9,-1.86 -1.66,-2.63 -0.76,-0.77 -1.62,-1.39 -2.57,-1.87 -0.95,-0.48 -1.91,-0.71 -2.88,-0.71 -1.06,0 -2.03,0.23 -2.92,0.69 -0.89,0.46 -1.65,1.07 -2.29,1.82 -0.64,0.75 -1.13,1.63 -1.47,2.63 -0.34,1 -0.51,2.04 -0.51,3.11 0,1.07 0.19,2.11 0.56,3.09 0.37,0.98 0.91,1.85 1.61,2.61 0.7,0.75 1.51,1.34 2.43,1.75 0.92,0.42 1.92,0.62 3.02,0.62 0.69,0 1.38,-0.11 2.08,-0.35 0.7,-0.23 1.36,-0.56 1.99,-0.99 0.62,-0.43 1.17,-0.95 1.64,-1.54 0.47,-0.59 0.79,-1.24 0.98,-1.91 z"
         id="path17" />
      <path
         class="uuid-bf0a3892-98ef-4677-a983-994a86323150"
         d="m 1410.82,1492.43 c -1.96,0.03 -3.72,0.48 -5.26,1.36 -1.54,0.87 -2.64,2.1 -3.3,3.69 v 14.97 h -5.14 v -24.27 h 4.72 v 5.24 c 0.87,-1.65 2,-2.99 3.37,-4 1.37,-1.01 2.81,-1.57 4.3,-1.66 h 0.82 c 0.2,0 0.37,0.02 0.49,0.05 v 4.63 z"
         id="path18" />
      <path
         class="uuid-bf0a3892-98ef-4677-a983-994a86323150"
         d="m 1425.6,1512.92 c -1.93,0 -3.66,-0.33 -5.19,-1 -1.53,-0.66 -2.85,-1.58 -3.95,-2.76 -1.11,-1.17 -1.96,-2.51 -2.55,-4.01 -0.59,-1.5 -0.89,-3.08 -0.89,-4.75 0,-1.67 0.3,-3.34 0.89,-4.84 0.59,-1.5 1.44,-2.83 2.55,-4.01 1.11,-1.17 2.43,-2.09 3.98,-2.76 1.54,-0.66 3.27,-1 5.17,-1 1.9,0 3.66,0.33 5.17,1 1.51,0.66 2.83,1.58 3.95,2.76 1.12,1.18 1.98,2.51 2.57,4.01 0.59,1.5 0.89,3.11 0.89,4.84 0,1.73 -0.3,3.25 -0.89,4.75 -0.59,1.5 -1.44,2.83 -2.55,4.01 -1.11,1.17 -2.43,2.09 -3.98,2.76 -1.54,0.66 -3.27,1 -5.17,1 z m -7.3,-12.56 c 0,1.57 0.33,2.97 0.98,4.2 0.65,1.23 1.53,2.2 2.62,2.91 1.09,0.71 2.31,1.06 3.65,1.06 1.34,0 2.65,-0.35 3.74,-1.06 1.09,-0.71 1.96,-1.69 2.62,-2.95 0.65,-1.26 0.98,-2.64 0.98,-4.15 0,-1.51 -0.33,-2.93 -0.98,-4.17 -0.65,-1.24 -1.54,-2.22 -2.64,-2.93 -1.11,-0.71 -2.33,-1.06 -3.67,-1.06 -1.34,0 -2.6,0.37 -3.69,1.11 -1.09,0.74 -1.96,1.72 -2.62,2.95 -0.65,1.23 -0.98,2.6 -0.98,4.1 z"
         id="path19" />
      <path
         class="uuid-bf0a3892-98ef-4677-a983-994a86323150"
         d="m 1455.95,1512.92 c -1.87,0 -3.56,-0.44 -5.07,-1.33 -1.51,-0.89 -2.71,-2.06 -3.58,-3.53 v 4.4 h -4.54 v -34.14 h 5.14 v 14.5 c 0.97,-1.53 2.17,-2.74 3.62,-3.65 1.45,-0.9 3.16,-1.36 5.12,-1.36 1.65,0 3.14,0.34 4.47,1.02 1.32,0.68 2.46,1.61 3.41,2.8 0.95,1.19 1.68,2.53 2.2,4.03 0.51,1.5 0.77,3.08 0.77,4.75 0,1.67 -0.29,3.35 -0.87,4.87 -0.58,1.51 -1.39,2.85 -2.43,4.01 -1.04,1.16 -2.27,2.05 -3.67,2.69 -1.4,0.63 -2.93,0.95 -4.58,0.95 z m -1.31,-4.4 c 1.09,0 2.1,-0.22 3.04,-0.67 0.94,-0.45 1.74,-1.04 2.41,-1.78 0.67,-0.74 1.19,-1.6 1.57,-2.58 0.37,-0.98 0.56,-2 0.56,-3.04 0,-1.47 -0.3,-2.83 -0.91,-4.08 -0.61,-1.25 -1.46,-2.25 -2.55,-3.02 -1.09,-0.77 -2.35,-1.15 -3.79,-1.15 -1.03,0 -2,0.24 -2.9,0.71 -0.9,0.48 -1.71,1.11 -2.41,1.89 -0.7,0.78 -1.29,1.65 -1.75,2.6 v 6.36 c 0.16,0.71 0.47,1.35 0.94,1.91 0.47,0.57 1.03,1.07 1.68,1.5 0.65,0.43 1.33,0.76 2.03,0.99 0.7,0.23 1.4,0.35 2.08,0.35 z"
         id="path20" />
      <path
         class="uuid-bf0a3892-98ef-4677-a983-994a86323150"
         d="m 1483.22,1512.92 c -1.93,0 -3.66,-0.33 -5.19,-1 -1.53,-0.66 -2.85,-1.58 -3.98,-2.74 -1.13,-1.16 -1.99,-2.49 -2.6,-3.99 -0.61,-1.5 -0.91,-3.09 -0.91,-4.76 0,-2.31 0.53,-4.43 1.59,-6.34 1.06,-1.91 2.55,-3.44 4.47,-4.58 1.92,-1.14 4.12,-1.71 6.62,-1.71 2.5,0 4.81,0.58 6.66,1.74 1.85,1.16 3.3,2.68 4.33,4.56 1.03,1.88 1.54,3.91 1.54,6.07 0,0.37 -0.02,0.72 -0.05,1.04 -0.03,0.32 -0.06,0.58 -0.09,0.76 h -19.64 c 0.16,1.45 0.58,2.7 1.26,3.76 0.69,1.06 1.57,1.89 2.67,2.49 1.09,0.6 2.25,0.9 3.46,0.9 1.4,0 2.72,-0.34 3.95,-1.03 1.23,-0.69 2.06,-1.59 2.5,-2.71 l 4.4,1.26 c -0.53,1.19 -1.34,2.25 -2.43,3.2 -1.09,0.95 -2.36,1.7 -3.81,2.25 -1.45,0.54 -3.03,0.82 -4.75,0.82 z m -7.35,-14.31 h 14.78 c -0.12,-1.41 -0.52,-2.63 -1.19,-3.67 -0.67,-1.04 -1.55,-1.86 -2.64,-2.45 -1.09,-0.6 -2.28,-0.89 -3.55,-0.89 -1.27,0 -2.5,0.3 -3.58,0.89 -1.08,0.59 -1.96,1.41 -2.64,2.45 -0.69,1.04 -1.08,2.26 -1.17,3.67 z"
         id="path21" />
      <path
         class="uuid-bf0a3892-98ef-4677-a983-994a86323150"
         d="m 1508.66,1512.92 c -2.06,0 -4.01,-0.34 -5.85,-1.03 -1.84,-0.69 -3.41,-1.7 -4.72,-3.04 l 1.87,-3.41 c 1.43,1.22 2.86,2.11 4.28,2.69 1.42,0.58 2.83,0.87 4.23,0.87 1.4,0 2.64,-0.27 3.53,-0.8 0.89,-0.53 1.33,-1.32 1.33,-2.36 0,-0.77 -0.24,-1.34 -0.73,-1.71 -0.48,-0.37 -1.17,-0.7 -2.06,-0.97 -0.89,-0.28 -1.94,-0.59 -3.16,-0.93 -1.71,-0.52 -3.17,-1.07 -4.37,-1.65 -1.2,-0.57 -2.1,-1.27 -2.69,-2.11 -0.59,-0.83 -0.89,-1.9 -0.89,-3.2 0,-1.54 0.4,-2.87 1.22,-3.98 0.81,-1.11 1.94,-1.97 3.39,-2.57 1.45,-0.6 3.13,-0.9 5.03,-0.9 1.78,0 3.42,0.27 4.93,0.82 1.51,0.55 2.84,1.4 4,2.55 l -2.2,3.37 c -1.06,-0.97 -2.17,-1.68 -3.32,-2.15 -1.15,-0.47 -2.39,-0.7 -3.69,-0.7 -0.72,0 -1.43,0.08 -2.13,0.25 -0.7,0.17 -1.29,0.48 -1.75,0.92 -0.47,0.45 -0.7,1.07 -0.7,1.87 0,0.68 0.19,1.21 0.58,1.6 0.39,0.39 0.96,0.72 1.71,0.99 0.75,0.28 1.67,0.59 2.76,0.93 1.9,0.52 3.52,1.06 4.86,1.62 1.34,0.56 2.38,1.26 3.11,2.1 0.73,0.85 1.1,2.01 1.1,3.49 0,2.31 -0.88,4.13 -2.64,5.46 -1.76,1.33 -4.11,1.99 -7.04,1.99 z"
         id="path22" />
    </g>
    <g
       id="g37">
      <path
         class="uuid-1f8fc04d-014d-453e-8b78-abef3c658b86"
         d="m 1213.12,1152.84 c -1.51,0.02 -2.86,0.37 -4.05,1.04 -1.19,0.67 -2.03,1.62 -2.54,2.84 v 11.52 h -3.96 v -18.68 h 3.64 v 4.03 c 0.67,-1.27 1.54,-2.3 2.59,-3.08 1.06,-0.78 2.16,-1.21 3.31,-1.28 h 0.63 c 0.16,0 0.28,0.01 0.38,0.04 v 3.56 z"
         id="path30" />
      <path
         class="uuid-1f8fc04d-014d-453e-8b78-abef3c658b86"
         d="m 1224.57,1168.61 c -1.49,0 -2.82,-0.26 -4,-0.77 -1.18,-0.51 -2.2,-1.22 -3.06,-2.11 -0.86,-0.89 -1.53,-1.92 -2,-3.07 -0.47,-1.16 -0.7,-2.38 -0.7,-3.66 0,-1.78 0.41,-3.41 1.22,-4.88 0.82,-1.47 1.96,-2.65 3.44,-3.53 1.48,-0.88 3.17,-1.32 5.09,-1.32 1.92,0 3.7,0.45 5.13,1.34 1.43,0.89 2.54,2.06 3.33,3.51 0.79,1.45 1.19,3.01 1.19,4.67 0,0.29 -0.01,0.55 -0.04,0.8 -0.02,0.25 -0.05,0.45 -0.07,0.59 h -15.12 c 0.12,1.11 0.44,2.08 0.97,2.9 0.53,0.82 1.21,1.46 2.05,1.92 0.84,0.46 1.73,0.69 2.66,0.69 1.08,0 2.09,-0.26 3.04,-0.79 0.95,-0.53 1.59,-1.22 1.93,-2.09 l 3.38,0.97 c -0.41,0.91 -1.03,1.73 -1.87,2.47 -0.84,0.73 -1.82,1.31 -2.93,1.73 -1.11,0.42 -2.33,0.63 -3.65,0.63 z m -5.65,-11.02 h 11.38 c -0.1,-1.08 -0.4,-2.02 -0.92,-2.82 -0.52,-0.8 -1.19,-1.43 -2.03,-1.89 -0.84,-0.46 -1.75,-0.69 -2.74,-0.69 -0.99,0 -1.93,0.23 -2.75,0.69 -0.82,0.46 -1.51,1.09 -2.03,1.89 -0.53,0.8 -0.83,1.74 -0.9,2.82 z"
         id="path31" />
      <path
         class="uuid-1f8fc04d-014d-453e-8b78-abef3c658b86"
         d="m 1244.15,1168.61 c -1.58,0 -3.08,-0.26 -4.5,-0.79 -1.42,-0.53 -2.63,-1.31 -3.64,-2.34 l 1.44,-2.63 c 1.1,0.94 2.2,1.63 3.29,2.07 1.09,0.44 2.18,0.67 3.26,0.67 1.08,0 2.03,-0.21 2.72,-0.62 0.68,-0.41 1.03,-1.02 1.03,-1.82 0,-0.59 -0.19,-1.03 -0.56,-1.32 -0.37,-0.29 -0.9,-0.54 -1.58,-0.75 -0.68,-0.21 -1.49,-0.45 -2.43,-0.71 -1.32,-0.4 -2.44,-0.83 -3.37,-1.27 -0.92,-0.44 -1.61,-0.98 -2.07,-1.62 -0.46,-0.64 -0.68,-1.46 -0.68,-2.46 0,-1.19 0.31,-2.21 0.94,-3.07 0.62,-0.86 1.49,-1.52 2.61,-1.98 1.12,-0.46 2.41,-0.7 3.87,-0.7 1.37,0 2.63,0.21 3.8,0.63 1.17,0.42 2.19,1.07 3.08,1.96 l -1.69,2.59 c -0.82,-0.74 -1.67,-1.3 -2.56,-1.66 -0.89,-0.36 -1.84,-0.54 -2.84,-0.54 -0.55,0 -1.1,0.06 -1.64,0.2 -0.54,0.13 -0.99,0.37 -1.35,0.71 -0.36,0.34 -0.54,0.83 -0.54,1.44 0,0.52 0.15,0.93 0.45,1.23 0.3,0.3 0.74,0.55 1.31,0.77 0.58,0.21 1.28,0.45 2.12,0.71 1.46,0.4 2.71,0.82 3.74,1.25 1.03,0.43 1.83,0.97 2.39,1.62 0.56,0.65 0.85,1.55 0.85,2.69 0,1.78 -0.68,3.18 -2.03,4.2 -1.36,1.02 -3.16,1.53 -5.42,1.53 z"
         id="path32" />
      <path
         class="uuid-1f8fc04d-014d-453e-8b78-abef3c658b86"
         d="m 1265.61,1167.35 c -0.31,0.14 -0.73,0.32 -1.26,0.52 -0.53,0.2 -1.1,0.38 -1.73,0.52 -0.63,0.14 -1.27,0.22 -1.94,0.22 -0.82,0 -1.57,-0.15 -2.27,-0.45 -0.7,-0.3 -1.25,-0.76 -1.67,-1.38 -0.42,-0.62 -0.63,-1.42 -0.63,-2.4 v -11.76 h -2.52 v -3.06 h 2.52 v -6.19 h 3.96 v 6.19 h 4.1 v 3.06 h -4.1 v 10.45 c 0.05,0.64 0.26,1.12 0.63,1.43 0.37,0.31 0.83,0.47 1.39,0.47 0.56,0 1.08,-0.1 1.6,-0.31 0.52,-0.2 0.87,-0.35 1.06,-0.45 l 0.86,3.13 z"
         id="path33" />
      <path
         class="uuid-1f8fc04d-014d-453e-8b78-abef3c658b86"
         d="m 1278.89,1152.84 c -1.51,0.02 -2.86,0.37 -4.05,1.04 -1.19,0.67 -2.03,1.62 -2.54,2.84 v 11.52 h -3.96 v -18.68 h 3.64 v 4.03 c 0.67,-1.27 1.54,-2.3 2.59,-3.08 1.06,-0.78 2.16,-1.21 3.31,-1.28 h 0.63 c 0.16,0 0.28,0.01 0.38,0.04 v 3.56 z"
         id="path34" />
      <path
         class="uuid-1f8fc04d-014d-453e-8b78-abef3c658b86"
         d="m 1290.27,1168.61 c -1.49,0 -2.82,-0.26 -4,-0.77 -1.18,-0.51 -2.19,-1.22 -3.04,-2.12 -0.85,-0.9 -1.51,-1.93 -1.96,-3.09 -0.46,-1.15 -0.68,-2.37 -0.68,-3.66 0,-1.29 0.23,-2.57 0.68,-3.73 0.46,-1.15 1.11,-2.18 1.96,-3.08 0.85,-0.9 1.87,-1.61 3.06,-2.12 1.19,-0.51 2.51,-0.77 3.98,-0.77 1.47,0 2.81,0.26 3.98,0.77 1.16,0.51 2.18,1.22 3.04,2.12 0.86,0.9 1.52,1.93 1.98,3.08 0.46,1.15 0.68,2.4 0.68,3.73 0,1.33 -0.23,2.5 -0.68,3.66 -0.46,1.15 -1.11,2.18 -1.96,3.09 -0.85,0.9 -1.87,1.61 -3.06,2.12 -1.19,0.51 -2.51,0.77 -3.98,0.77 z m -5.62,-9.67 c 0,1.21 0.25,2.28 0.76,3.23 0.5,0.95 1.18,1.69 2.02,2.24 0.84,0.54 1.78,0.82 2.81,0.82 1.03,0 2.04,-0.27 2.88,-0.82 0.84,-0.54 1.51,-1.3 2.02,-2.27 0.51,-0.97 0.76,-2.03 0.76,-3.19 0,-1.16 -0.25,-2.25 -0.76,-3.21 -0.51,-0.96 -1.18,-1.71 -2.03,-2.25 -0.85,-0.54 -1.79,-0.82 -2.83,-0.82 -1.04,0 -2,0.28 -2.84,0.85 -0.84,0.57 -1.51,1.33 -2.02,2.27 -0.5,0.95 -0.76,2 -0.76,3.16 z"
         id="path35" />
      <path
         class="uuid-1f8fc04d-014d-453e-8b78-abef3c658b86"
         d="m 1311.94,1168.61 c -1.49,0 -2.82,-0.26 -4,-0.77 -1.18,-0.51 -2.19,-1.22 -3.04,-2.12 -0.85,-0.9 -1.51,-1.93 -1.96,-3.09 -0.46,-1.15 -0.68,-2.37 -0.68,-3.66 0,-1.29 0.23,-2.57 0.68,-3.73 0.46,-1.15 1.11,-2.18 1.96,-3.08 0.85,-0.9 1.87,-1.61 3.06,-2.12 1.19,-0.51 2.51,-0.77 3.98,-0.77 1.47,0 2.81,0.26 3.98,0.77 1.16,0.51 2.18,1.22 3.04,2.12 0.86,0.9 1.52,1.93 1.98,3.08 0.46,1.15 0.68,2.4 0.68,3.73 0,1.33 -0.23,2.5 -0.68,3.66 -0.46,1.15 -1.11,2.18 -1.96,3.09 -0.85,0.9 -1.87,1.61 -3.06,2.12 -1.19,0.51 -2.51,0.77 -3.98,0.77 z m -5.61,-9.67 c 0,1.21 0.25,2.28 0.76,3.23 0.5,0.95 1.18,1.69 2.02,2.24 0.84,0.54 1.78,0.82 2.81,0.82 1.03,0 2.04,-0.27 2.88,-0.82 0.84,-0.54 1.51,-1.3 2.02,-2.27 0.51,-0.97 0.76,-2.03 0.76,-3.19 0,-1.16 -0.25,-2.25 -0.76,-3.21 -0.51,-0.96 -1.18,-1.71 -2.03,-2.25 -0.85,-0.54 -1.79,-0.82 -2.83,-0.82 -1.04,0 -2,0.28 -2.84,0.85 -0.84,0.57 -1.51,1.33 -2.02,2.27 -0.5,0.95 -0.76,2 -0.76,3.16 z"
         id="path36" />
      <path
         class="uuid-1f8fc04d-014d-453e-8b78-abef3c658b86"
         d="m 1353.95,1168.25 h -3.92 v -10.43 c 0,-1.73 -0.29,-3 -0.88,-3.81 -0.59,-0.81 -1.43,-1.21 -2.54,-1.21 -1.11,0 -2.12,0.41 -3.06,1.23 -0.94,0.82 -1.61,1.88 -2.02,3.18 v 11.03 h -3.96 v -10.43 c 0,-1.76 -0.28,-3.03 -0.85,-3.83 -0.56,-0.79 -1.41,-1.19 -2.54,-1.19 -1.13,0 -2.09,0.4 -3.04,1.19 -0.95,0.79 -1.63,1.85 -2.03,3.17 v 11.09 h -3.96 v -18.68 h 3.6 v 3.74 c 0.74,-1.28 1.72,-2.28 2.93,-2.98 1.21,-0.7 2.6,-1.05 4.16,-1.05 1.56,0 2.79,0.4 3.69,1.19 0.9,0.79 1.47,1.81 1.71,3.05 0.79,-1.38 1.78,-2.43 2.97,-3.16 1.19,-0.73 2.55,-1.09 4.09,-1.09 1.1,0 2.02,0.2 2.75,0.61 0.73,0.4 1.31,0.96 1.73,1.66 0.42,0.7 0.72,1.51 0.9,2.43 0.18,0.92 0.27,1.88 0.27,2.91 z"
         id="path37" />
    </g>
    <path
       class="uuid-e5b04437-6012-43b3-8bd8-203d60afffae"
       d="m 1278.17,1118.83 c -9.69,0 -17.57,-7.88 -17.57,-17.56 0,-9.68 7.88,-17.56 17.57,-17.56 9.69,0 17.56,7.88 17.56,17.56 0,9.68 -7.88,17.56 -17.56,17.56 z m 0,-31.13 c -7.48,0 -13.57,6.08 -13.57,13.56 0,7.48 6.09,13.56 13.57,13.56 7.48,0 13.56,-6.08 13.56,-13.56 0,-7.48 -6.09,-13.56 -13.56,-13.56 z"
       id="path38" />
    <g
       id="g46">
      <path
         class="uuid-1f8fc04d-014d-453e-8b78-abef3c658b86"
         d="m 1433.86,1150.56 c -1.51,0.02 -2.86,0.37 -4.05,1.04 -1.19,0.67 -2.03,1.62 -2.54,2.84 v 11.52 h -3.96 v -18.68 h 3.64 v 4.03 c 0.67,-1.27 1.54,-2.3 2.59,-3.08 1.06,-0.78 2.16,-1.21 3.31,-1.28 h 0.63 c 0.16,0 0.28,0.01 0.38,0.04 v 3.56 z"
         id="path39" />
      <path
         class="uuid-1f8fc04d-014d-453e-8b78-abef3c658b86"
         d="m 1445.31,1166.33 c -1.49,0 -2.82,-0.26 -4,-0.77 -1.18,-0.51 -2.2,-1.22 -3.06,-2.11 -0.86,-0.89 -1.53,-1.92 -2,-3.07 -0.47,-1.16 -0.7,-2.38 -0.7,-3.66 0,-1.78 0.41,-3.41 1.22,-4.88 0.82,-1.47 1.96,-2.65 3.44,-3.53 1.48,-0.88 3.17,-1.32 5.09,-1.32 1.92,0 3.7,0.45 5.13,1.34 1.43,0.89 2.54,2.06 3.33,3.51 0.79,1.45 1.19,3.01 1.19,4.67 0,0.29 -0.01,0.55 -0.04,0.8 -0.02,0.25 -0.05,0.45 -0.07,0.59 h -15.12 c 0.12,1.11 0.44,2.08 0.97,2.9 0.53,0.82 1.21,1.46 2.05,1.92 0.84,0.46 1.73,0.69 2.66,0.69 1.08,0 2.09,-0.26 3.04,-0.79 0.95,-0.53 1.59,-1.22 1.93,-2.09 l 3.38,0.97 c -0.41,0.91 -1.03,1.73 -1.87,2.47 -0.84,0.73 -1.82,1.31 -2.93,1.73 -1.11,0.42 -2.33,0.63 -3.65,0.63 z m -5.65,-11.01 h 11.38 c -0.1,-1.08 -0.4,-2.02 -0.92,-2.82 -0.52,-0.8 -1.19,-1.43 -2.03,-1.89 -0.84,-0.46 -1.75,-0.69 -2.74,-0.69 -0.99,0 -1.93,0.23 -2.75,0.69 -0.82,0.46 -1.51,1.09 -2.03,1.89 -0.53,0.8 -0.83,1.74 -0.9,2.82 z"
         id="path40" />
      <path
         class="uuid-1f8fc04d-014d-453e-8b78-abef3c658b86"
         d="m 1464.89,1166.33 c -1.58,0 -3.08,-0.26 -4.5,-0.79 -1.42,-0.53 -2.63,-1.31 -3.64,-2.34 l 1.44,-2.63 c 1.1,0.94 2.2,1.63 3.29,2.07 1.09,0.44 2.18,0.67 3.26,0.67 1.08,0 2.03,-0.21 2.72,-0.62 0.68,-0.41 1.03,-1.02 1.03,-1.82 0,-0.59 -0.19,-1.03 -0.56,-1.32 -0.37,-0.29 -0.9,-0.54 -1.58,-0.75 -0.68,-0.21 -1.49,-0.45 -2.43,-0.71 -1.32,-0.4 -2.44,-0.83 -3.37,-1.27 -0.92,-0.44 -1.61,-0.98 -2.07,-1.62 -0.46,-0.64 -0.68,-1.46 -0.68,-2.46 0,-1.19 0.31,-2.21 0.94,-3.07 0.62,-0.86 1.49,-1.52 2.61,-1.98 1.12,-0.46 2.41,-0.7 3.87,-0.7 1.37,0 2.63,0.21 3.8,0.63 1.17,0.42 2.19,1.07 3.08,1.96 l -1.69,2.59 c -0.82,-0.74 -1.67,-1.3 -2.56,-1.66 -0.89,-0.36 -1.84,-0.54 -2.84,-0.54 -0.55,0 -1.1,0.06 -1.64,0.2 -0.54,0.13 -0.99,0.37 -1.35,0.71 -0.36,0.34 -0.54,0.83 -0.54,1.44 0,0.52 0.15,0.93 0.45,1.23 0.3,0.3 0.74,0.55 1.31,0.77 0.58,0.21 1.28,0.45 2.12,0.71 1.46,0.4 2.71,0.82 3.74,1.25 1.03,0.43 1.83,0.97 2.39,1.62 0.56,0.65 0.85,1.55 0.85,2.69 0,1.78 -0.68,3.18 -2.03,4.2 -1.36,1.02 -3.16,1.53 -5.42,1.53 z"
         id="path41" />
      <path
         class="uuid-1f8fc04d-014d-453e-8b78-abef3c658b86"
         d="m 1486.35,1165.07 c -0.31,0.14 -0.73,0.32 -1.26,0.52 -0.53,0.2 -1.1,0.38 -1.73,0.52 -0.63,0.14 -1.27,0.22 -1.94,0.22 -0.82,0 -1.57,-0.15 -2.27,-0.45 -0.7,-0.3 -1.25,-0.76 -1.67,-1.38 -0.42,-0.62 -0.63,-1.42 -0.63,-2.4 v -11.76 h -2.52 v -3.06 h 2.52 v -6.19 h 3.96 v 6.19 h 4.1 v 3.06 h -4.1 v 10.45 c 0.05,0.64 0.26,1.12 0.63,1.43 0.37,0.31 0.83,0.47 1.39,0.47 0.56,0 1.08,-0.1 1.6,-0.31 0.52,-0.2 0.87,-0.35 1.06,-0.45 l 0.86,3.13 z"
         id="path42" />
      <path
         class="uuid-1f8fc04d-014d-453e-8b78-abef3c658b86"
         d="m 1499.63,1150.56 c -1.51,0.02 -2.86,0.37 -4.05,1.04 -1.19,0.67 -2.03,1.62 -2.54,2.84 v 11.52 h -3.96 v -18.68 h 3.64 v 4.03 c 0.67,-1.27 1.54,-2.3 2.59,-3.08 1.06,-0.78 2.16,-1.21 3.31,-1.28 h 0.63 c 0.16,0 0.28,0.01 0.38,0.04 v 3.56 z"
         id="path43" />
      <path
         class="uuid-1f8fc04d-014d-453e-8b78-abef3c658b86"
         d="m 1511.01,1166.33 c -1.49,0 -2.82,-0.26 -4,-0.77 -1.18,-0.51 -2.19,-1.22 -3.04,-2.12 -0.85,-0.9 -1.51,-1.93 -1.96,-3.09 -0.46,-1.15 -0.68,-2.37 -0.68,-3.66 0,-1.29 0.23,-2.57 0.68,-3.73 0.46,-1.15 1.11,-2.18 1.96,-3.08 0.85,-0.9 1.87,-1.61 3.06,-2.12 1.19,-0.51 2.51,-0.77 3.98,-0.77 1.47,0 2.81,0.26 3.98,0.77 1.16,0.51 2.18,1.22 3.04,2.12 0.86,0.9 1.52,1.93 1.98,3.08 0.46,1.15 0.68,2.4 0.68,3.73 0,1.33 -0.23,2.5 -0.68,3.66 -0.46,1.15 -1.11,2.18 -1.96,3.09 -0.85,0.9 -1.87,1.61 -3.06,2.12 -1.19,0.51 -2.51,0.77 -3.98,0.77 z m -5.62,-9.66 c 0,1.21 0.25,2.28 0.76,3.23 0.5,0.95 1.18,1.69 2.02,2.24 0.84,0.54 1.78,0.82 2.81,0.82 1.03,0 2.04,-0.27 2.88,-0.82 0.84,-0.54 1.51,-1.3 2.02,-2.27 0.51,-0.97 0.76,-2.03 0.76,-3.19 0,-1.16 -0.25,-2.25 -0.76,-3.21 -0.51,-0.96 -1.18,-1.71 -2.03,-2.25 -0.85,-0.54 -1.79,-0.82 -2.83,-0.82 -1.04,0 -2,0.28 -2.84,0.85 -0.84,0.57 -1.51,1.33 -2.02,2.27 -0.5,0.95 -0.76,2 -0.76,3.16 z"
         id="path44" />
      <path
         class="uuid-1f8fc04d-014d-453e-8b78-abef3c658b86"
         d="m 1532.68,1166.33 c -1.49,0 -2.82,-0.26 -4,-0.77 -1.18,-0.51 -2.19,-1.22 -3.04,-2.12 -0.85,-0.9 -1.51,-1.93 -1.96,-3.09 -0.46,-1.15 -0.68,-2.37 -0.68,-3.66 0,-1.29 0.23,-2.57 0.68,-3.73 0.46,-1.15 1.11,-2.18 1.96,-3.08 0.85,-0.9 1.87,-1.61 3.06,-2.12 1.19,-0.51 2.51,-0.77 3.98,-0.77 1.47,0 2.81,0.26 3.98,0.77 1.16,0.51 2.18,1.22 3.04,2.12 0.86,0.9 1.52,1.93 1.98,3.08 0.46,1.15 0.68,2.4 0.68,3.73 0,1.33 -0.23,2.5 -0.68,3.66 -0.46,1.15 -1.11,2.18 -1.96,3.09 -0.85,0.9 -1.87,1.61 -3.06,2.12 -1.19,0.51 -2.51,0.77 -3.98,0.77 z m -5.61,-9.66 c 0,1.21 0.25,2.28 0.76,3.23 0.5,0.95 1.18,1.69 2.02,2.24 0.84,0.54 1.78,0.82 2.81,0.82 1.03,0 2.04,-0.27 2.88,-0.82 0.84,-0.54 1.51,-1.3 2.02,-2.27 0.51,-0.97 0.76,-2.03 0.76,-3.19 0,-1.16 -0.25,-2.25 -0.76,-3.21 -0.51,-0.96 -1.18,-1.71 -2.03,-2.25 -0.85,-0.54 -1.79,-0.82 -2.83,-0.82 -1.04,0 -2,0.28 -2.84,0.85 -0.84,0.57 -1.51,1.33 -2.02,2.27 -0.5,0.95 -0.76,2 -0.76,3.16 z"
         id="path45" />
      <path
         class="uuid-1f8fc04d-014d-453e-8b78-abef3c658b86"
         d="m 1574.69,1165.97 h -3.92 v -10.43 c 0,-1.73 -0.29,-3 -0.88,-3.81 -0.59,-0.81 -1.43,-1.21 -2.54,-1.21 -1.11,0 -2.12,0.41 -3.06,1.23 -0.94,0.82 -1.61,1.88 -2.02,3.18 v 11.03 h -3.96 v -10.43 c 0,-1.76 -0.28,-3.03 -0.85,-3.83 -0.56,-0.79 -1.41,-1.19 -2.54,-1.19 -1.13,0 -2.09,0.4 -3.04,1.19 -0.95,0.79 -1.63,1.85 -2.03,3.17 v 11.09 h -3.96 v -18.68 h 3.6 v 3.74 c 0.74,-1.28 1.72,-2.28 2.93,-2.98 1.21,-0.7 2.6,-1.05 4.16,-1.05 1.56,0 2.79,0.4 3.69,1.19 0.9,0.79 1.47,1.81 1.71,3.05 0.79,-1.38 1.78,-2.43 2.97,-3.16 1.19,-0.73 2.55,-1.09 4.09,-1.09 1.1,0 2.02,0.2 2.75,0.61 0.73,0.4 1.31,0.96 1.73,1.66 0.42,0.7 0.72,1.51 0.9,2.43 0.18,0.92 0.27,1.88 0.27,2.91 z"
         id="path46" />
    </g>
    <path
       class="uuid-e5b04437-6012-43b3-8bd8-203d60afffae"
       d="m 1454.32,1330.9 c -0.86,0 -1.66,-0.56 -1.92,-1.43 -0.31,-1.06 0.29,-2.17 1.35,-2.48 l 70.36,-20.78 c 1.06,-0.32 2.17,0.29 2.48,1.35 0.31,1.06 -0.29,2.17 -1.35,2.48 l -70.36,20.78 c -0.19,0.06 -0.38,0.08 -0.57,0.08 z"
       id="path443" />
    <path
       class="uuid-e5b04437-6012-43b3-8bd8-203d60afffae"
       d="m 1173.59,1325.99 c -0.92,0 -1.75,-0.64 -1.95,-1.58 -0.23,-1.08 0.45,-2.14 1.53,-2.38 l 81.93,-17.78 c 1.08,-0.23 2.14,0.45 2.38,1.53 0.23,1.08 -0.45,2.14 -1.53,2.38 l -81.93,17.78 c -0.14,0.03 -0.29,0.05 -0.43,0.05 z"
       id="path444" />
    <path
       class="uuid-bf0a3892-98ef-4677-a983-994a86323150"
       d="m 1090.37,1289.39 c -1.1,0 -2,-0.9 -2,-2 V 963.87 c 0,-1.1 0.9,-2 2,-2 h 294.47 c 1.1,0 2,0.9 2,2 0,1.1 -0.9,2 -2,2 h -292.47 v 321.52 c 0,1.1 -0.9,2 -2,2 z"
       id="path493" />
    <path
       class="uuid-bf0a3892-98ef-4677-a983-994a86323150"
       d="m 1695.25,1547.37 h -604.56 c -1.1,0 -2,-0.9 -2,-2 v -95.87 c 0,-1.1 0.9,-2 2,-2 h 602.56 V 964.69 c 0,-1.1 0.9,-2 2,-2 1.1,0 2,0.9 2,2 v 580.67 c 0,1.1 -0.9,2 -2,2 z m -602.56,-4 h 600.56 v -91.87 h -600.56 z"
       id="path494" />
    <path
       class="uuid-bf0a3892-98ef-4677-a983-994a86323150"
       d="m 1384.65,1306.37 c -1.1,0 -2,-0.9 -2,-2 v -340.5 c 0,-1.1 0.9,-2 2,-2 1.1,0 2,0.9 2,2 v 340.5 c 0,1.1 -0.9,2 -2,2 z"
       id="path495" />
    <path
       class="uuid-bf0a3892-98ef-4677-a983-994a86323150"
       d="m 1604.74,1306.37 c -1.1,0 -2,-0.9 -2,-2 v -340.5 c 0,-1.1 0.9,-2 2,-2 1.1,0 2,0.9 2,2 v 340.5 c 0,1.1 -0.9,2 -2,2 z"
       id="path496" />
    <path
       class="uuid-bf0a3892-98ef-4677-a983-994a86323150"
       d="m 1164.56,1308.38 c -1.1,0 -2,-0.9 -2,-2 V 964.97 c 0,-1.1 0.9,-2 2,-2 1.1,0 2,0.9 2,2 v 341.41 c 0,1.1 -0.9,2 -2,2 z"
       id="path497" />
    <path
       class="uuid-bf0a3892-98ef-4677-a983-994a86323150"
       d="m 1712.49,965.92 h -336.44 c -1.1,0 -2,-0.9 -2,-2 0,-1.1 0.9,-2 2,-2 h 336.44 c 1.1,0 2,0.9 2,2 0,1.1 -0.9,2 -2,2 z"
       id="path498" />
    <path
       class="uuid-bf0a3892-98ef-4677-a983-994a86323150"
       d="m 1090.69,1450.83 c -1.1,0 -2,-0.9 -2,-2 v -26.54 c 0,-1.1 0.9,-2 2,-2 1.1,0 2,0.9 2,2 v 26.54 c 0,1.1 -0.9,2 -2,2 z"
       id="path499" />
    <path
       class="uuid-bf0a3892-98ef-4677-a983-994a86323150"
       d="m 1163.73,1251.42 h -73.36 c -1.1,0 -2,-0.9 -2,-2 0,-1.1 0.9,-2 2,-2 h 73.36 c 1.1,0 2,0.9 2,2 0,1.1 -0.9,2 -2,2 z"
       id="path501" />
    <path
       class="uuid-bf0a3892-98ef-4677-a983-994a86323150"
       d="m 1384.16,1307.55 h -117.4 c -1.1,0 -2,-0.9 -2,-2 0,-1.1 0.9,-2 2,-2 h 117.4 c 1.1,0 2,0.9 2,2 0,1.1 -0.9,2 -2,2 z"
       id="path502" />
    <path
       class="uuid-bf0a3892-98ef-4677-a983-994a86323150"
       d="m 1604.51,1308.2 h -67.85 c -1.1,0 -2,-0.9 -2,-2 0,-1.1 0.9,-2 2,-2 h 67.85 c 1.1,0 2,0.9 2,2 0,1.1 -0.9,2 -2,2 z"
       id="path503" />
    <path
       class="uuid-bf0a3892-98ef-4677-a983-994a86323150"
       d="m 1712.68,1308.16 h -110.41 c -1.1,0 -2,-0.9 -2,-2 0,-1.1 0.9,-2 2,-2 h 110.41 c 1.1,0 2,0.9 2,2 0,1.1 -0.9,2 -2,2 z"
       id="path504" />
    <path
       class="uuid-bf0a3892-98ef-4677-a983-994a86323150"
       d="m 1449.12,1307.55 h -65.44 c -1.1,0 -2,-0.9 -2,-2 0,-1.1 0.9,-2 2,-2 h 65.44 c 1.1,0 2,0.9 2,2 0,1.1 -0.9,2 -2,2 z"
       id="path505" />
    <path
       class="uuid-e5b04437-6012-43b3-8bd8-203d60afffae"
       d="m 1518.61,1115.05 h -39.4 l 19.7,-34.12 z m -32.47,-4 h 25.54 l -12.77,-22.12 z"
       id="path547" />
    <g
       class="uuid-b2c42af5-9538-4db0-ae68-72345bea714e"
       id="g572">
      <g
         class="uuid-8b326d10-3d91-49d9-9322-0a4832b86355"
         id="g560">
        <path
           class="uuid-bf0a3892-98ef-4677-a983-994a86323150"
           d="m 1163.57,996.1 c -0.51,0 -1.02,-0.2 -1.41,-0.59 l -29.59,-29.59 c -0.78,-0.78 -0.78,-2.05 0,-2.83 0.78,-0.78 2.05,-0.78 2.83,0 l 29.59,29.59 c 0.78,0.78 0.78,2.05 0,2.83 -0.39,0.39 -0.9,0.59 -1.41,0.59 z"
           id="path560" />
      </g>
      <g
         class="uuid-8b326d10-3d91-49d9-9322-0a4832b86355"
         id="g561">
        <path
           class="uuid-bf0a3892-98ef-4677-a983-994a86323150"
           d="m 1164.06,1024.46 c -0.51,0 -1.02,-0.2 -1.41,-0.59 l -58.2,-58.2 c -0.78,-0.78 -0.78,-2.05 0,-2.83 0.78,-0.78 2.05,-0.78 2.83,0 l 58.2,58.2 c 0.78,0.78 0.78,2.05 0,2.83 -0.39,0.39 -0.9,0.59 -1.41,0.59 z"
           id="path561" />
      </g>
      <g
         class="uuid-8b326d10-3d91-49d9-9322-0a4832b86355"
         id="g562">
        <path
           class="uuid-bf0a3892-98ef-4677-a983-994a86323150"
           d="m 1163.08,1053.32 c -0.51,0 -1.02,-0.2 -1.41,-0.59 l -72.14,-72.14 c -0.78,-0.78 -0.78,-2.05 0,-2.83 0.78,-0.78 2.05,-0.78 2.83,0 l 72.14,72.14 c 0.78,0.78 0.78,2.05 0,2.83 -0.39,0.39 -0.9,0.59 -1.41,0.59 z"
           id="path562" />
      </g>
      <g
         class="uuid-8b326d10-3d91-49d9-9322-0a4832b86355"
         id="g563">
        <path
           class="uuid-bf0a3892-98ef-4677-a983-994a86323150"
           d="m 1163.08,1080.71 c -0.51,0 -1.02,-0.2 -1.41,-0.59 l -72.14,-72.14 c -0.78,-0.78 -0.78,-2.05 0,-2.83 0.78,-0.78 2.05,-0.78 2.83,0 l 72.14,72.14 c 0.78,0.78 0.78,2.05 0,2.83 -0.39,0.39 -0.9,0.59 -1.41,0.59 z"
           id="path563" />
      </g>
      <g
         class="uuid-8b326d10-3d91-49d9-9322-0a4832b86355"
         id="g564">
        <path
           class="uuid-bf0a3892-98ef-4677-a983-994a86323150"
           d="m 1163.08,1108.1 c -0.51,0 -1.02,-0.2 -1.41,-0.59 l -72.14,-72.14 c -0.78,-0.78 -0.78,-2.05 0,-2.83 0.78,-0.78 2.05,-0.78 2.83,0 l 72.14,72.14 c 0.78,0.78 0.78,2.05 0,2.83 -0.39,0.39 -0.9,0.59 -1.41,0.59 z"
           id="path564" />
      </g>
      <g
         class="uuid-8b326d10-3d91-49d9-9322-0a4832b86355"
         id="g565">
        <path
           class="uuid-bf0a3892-98ef-4677-a983-994a86323150"
           d="m 1163.08,1135.49 c -0.51,0 -1.02,-0.2 -1.41,-0.59 l -72.14,-72.14 c -0.78,-0.78 -0.78,-2.05 0,-2.83 0.78,-0.78 2.05,-0.78 2.83,0 l 72.14,72.14 c 0.78,0.78 0.78,2.05 0,2.83 -0.39,0.39 -0.9,0.59 -1.41,0.59 z"
           id="path565" />
      </g>
      <g
         class="uuid-8b326d10-3d91-49d9-9322-0a4832b86355"
         id="g566">
        <path
           class="uuid-bf0a3892-98ef-4677-a983-994a86323150"
           d="m 1163.08,1162.88 c -0.51,0 -1.02,-0.2 -1.41,-0.59 l -72.14,-72.14 c -0.78,-0.78 -0.78,-2.05 0,-2.83 0.78,-0.78 2.05,-0.78 2.83,0 l 72.14,72.14 c 0.78,0.78 0.78,2.05 0,2.83 -0.39,0.39 -0.9,0.59 -1.41,0.59 z"
           id="path566" />
      </g>
      <g
         class="uuid-8b326d10-3d91-49d9-9322-0a4832b86355"
         id="g567">
        <path
           class="uuid-bf0a3892-98ef-4677-a983-994a86323150"
           d="m 1163.08,1190.26 c -0.51,0 -1.02,-0.2 -1.41,-0.59 l -72.14,-72.14 c -0.78,-0.78 -0.78,-2.05 0,-2.83 0.78,-0.78 2.05,-0.78 2.83,0 l 72.14,72.14 c 0.78,0.78 0.78,2.05 0,2.83 -0.39,0.39 -0.9,0.59 -1.41,0.59 z"
           id="path567" />
      </g>
      <g
         class="uuid-8b326d10-3d91-49d9-9322-0a4832b86355"
         id="g568">
        <path
           class="uuid-bf0a3892-98ef-4677-a983-994a86323150"
           d="m 1163.08,1217.65 c -0.51,0 -1.02,-0.2 -1.41,-0.59 l -72.14,-72.14 c -0.78,-0.78 -0.78,-2.05 0,-2.83 0.78,-0.78 2.05,-0.78 2.83,0 l 72.14,72.14 c 0.78,0.78 0.78,2.05 0,2.83 -0.39,0.39 -0.9,0.59 -1.41,0.59 z"
           id="path568" />
      </g>
      <g
         class="uuid-8b326d10-3d91-49d9-9322-0a4832b86355"
         id="g569">
        <path
           class="uuid-bf0a3892-98ef-4677-a983-994a86323150"
           d="m 1163.08,1245.04 c -0.51,0 -1.02,-0.2 -1.41,-0.59 l -72.14,-72.14 c -0.78,-0.78 -0.78,-2.05 0,-2.83 0.78,-0.78 2.05,-0.78 2.83,0 l 72.14,72.14 c 0.78,0.78 0.78,2.05 0,2.83 -0.39,0.39 -0.9,0.59 -1.41,0.59 z"
           id="path569" />
      </g>
      <g
         class="uuid-8b326d10-3d91-49d9-9322-0a4832b86355"
         id="g570">
        <path
           class="uuid-bf0a3892-98ef-4677-a983-994a86323150"
           d="m 1141.56,1250.91 c -0.51,0 -1.02,-0.2 -1.41,-0.59 l -50.62,-50.62 c -0.78,-0.78 -0.78,-2.05 0,-2.83 0.78,-0.78 2.05,-0.78 2.83,0 l 50.62,50.62 c 0.78,0.78 0.78,2.05 0,2.83 -0.39,0.39 -0.9,0.59 -1.41,0.59 z"
           id="path570" />
      </g>
      <g
         class="uuid-8b326d10-3d91-49d9-9322-0a4832b86355"
         id="g571">
        <path
           class="uuid-bf0a3892-98ef-4677-a983-994a86323150"
           d="m 1114.66,1251.4 c -0.51,0 -1.02,-0.2 -1.41,-0.59 l -23.72,-23.72 c -0.78,-0.78 -0.78,-2.05 0,-2.83 0.78,-0.78 2.05,-0.78 2.83,0 l 23.72,23.72 c 0.78,0.78 0.78,2.05 0,2.83 -0.39,0.39 -0.9,0.59 -1.41,0.59 z"
           id="path571" />
      </g>
    </g>
    <g
       class="uuid-8b326d10-3d91-49d9-9322-0a4832b86355"
       id="g573">
      <path
         class="uuid-bf0a3892-98ef-4677-a983-994a86323150"
         d="m 1692.79,994.37 c -0.43,0 -0.86,-0.14 -1.23,-0.42 l -35.18,-27.39 c -0.87,-0.68 -1.03,-1.94 -0.35,-2.81 0.68,-0.87 1.93,-1.03 2.81,-0.35 l 35.18,27.39 c 0.87,0.68 1.03,1.94 0.35,2.81 -0.39,0.51 -0.98,0.77 -1.58,0.77 z"
         id="path572" />
    </g>
    <g
       class="uuid-8b326d10-3d91-49d9-9322-0a4832b86355"
       id="g574">
      <path
         class="uuid-bf0a3892-98ef-4677-a983-994a86323150"
         d="m 1693.37,1020.63 c -0.43,0 -0.86,-0.14 -1.23,-0.42 l -69.2,-53.88 c -0.87,-0.68 -1.03,-1.94 -0.35,-2.81 0.68,-0.87 1.93,-1.03 2.81,-0.35 l 69.2,53.88 c 0.87,0.68 1.03,1.94 0.35,2.81 -0.39,0.51 -0.98,0.77 -1.58,0.77 z"
         id="path573" />
    </g>
    <g
       class="uuid-8b326d10-3d91-49d9-9322-0a4832b86355"
       id="g575">
      <path
         class="uuid-bf0a3892-98ef-4677-a983-994a86323150"
         d="m 1692.21,1047.34 c -0.43,0 -0.86,-0.14 -1.23,-0.42 l -85.77,-66.78 c -0.87,-0.68 -1.03,-1.94 -0.35,-2.81 0.68,-0.87 1.93,-1.03 2.81,-0.35 l 85.77,66.78 c 0.87,0.68 1.03,1.94 0.35,2.81 -0.39,0.51 -0.98,0.77 -1.58,0.77 z"
         id="path574" />
    </g>
    <g
       class="uuid-8b326d10-3d91-49d9-9322-0a4832b86355"
       id="g576">
      <path
         class="uuid-bf0a3892-98ef-4677-a983-994a86323150"
         d="m 1692.21,1072.69 c -0.43,0 -0.86,-0.14 -1.23,-0.42 l -85.77,-66.78 c -0.87,-0.68 -1.03,-1.94 -0.35,-2.81 0.68,-0.87 1.93,-1.03 2.81,-0.35 l 85.77,66.78 c 0.87,0.68 1.03,1.94 0.35,2.81 -0.39,0.51 -0.98,0.77 -1.58,0.77 z"
         id="path575" />
    </g>
    <g
       class="uuid-8b326d10-3d91-49d9-9322-0a4832b86355"
       id="g577">
      <path
         class="uuid-bf0a3892-98ef-4677-a983-994a86323150"
         d="m 1692.21,1098.04 c -0.43,0 -0.86,-0.14 -1.23,-0.42 l -85.77,-66.78 c -0.87,-0.68 -1.03,-1.94 -0.35,-2.81 0.68,-0.87 1.93,-1.03 2.81,-0.35 l 85.77,66.78 c 0.87,0.68 1.03,1.94 0.35,2.81 -0.39,0.51 -0.98,0.77 -1.58,0.77 z"
         id="path576" />
    </g>
    <g
       class="uuid-8b326d10-3d91-49d9-9322-0a4832b86355"
       id="g578">
      <path
         class="uuid-bf0a3892-98ef-4677-a983-994a86323150"
         d="m 1692.21,1123.4 c -0.43,0 -0.86,-0.14 -1.23,-0.42 l -85.77,-66.78 c -0.87,-0.68 -1.03,-1.94 -0.35,-2.81 0.68,-0.87 1.93,-1.03 2.81,-0.35 l 85.77,66.78 c 0.87,0.68 1.03,1.94 0.35,2.81 -0.39,0.51 -0.98,0.77 -1.58,0.77 z"
         id="path577" />
    </g>
    <g
       class="uuid-8b326d10-3d91-49d9-9322-0a4832b86355"
       id="g579">
      <path
         class="uuid-bf0a3892-98ef-4677-a983-994a86323150"
         d="m 1692.21,1148.75 c -0.43,0 -0.86,-0.14 -1.23,-0.42 l -85.77,-66.78 c -0.87,-0.68 -1.03,-1.94 -0.35,-2.81 0.68,-0.87 1.93,-1.03 2.81,-0.35 l 85.77,66.78 c 0.87,0.68 1.03,1.94 0.35,2.81 -0.39,0.51 -0.98,0.77 -1.58,0.77 z"
         id="path578" />
    </g>
    <g
       class="uuid-8b326d10-3d91-49d9-9322-0a4832b86355"
       id="g580">
      <path
         class="uuid-bf0a3892-98ef-4677-a983-994a86323150"
         d="m 1692.21,1174.11 c -0.43,0 -0.86,-0.14 -1.23,-0.42 l -85.77,-66.78 c -0.87,-0.68 -1.03,-1.94 -0.35,-2.81 0.68,-0.87 1.93,-1.03 2.81,-0.35 l 85.77,66.78 c 0.87,0.68 1.03,1.94 0.35,2.81 -0.39,0.51 -0.98,0.77 -1.58,0.77 z"
         id="path579" />
    </g>
    <g
       class="uuid-8b326d10-3d91-49d9-9322-0a4832b86355"
       id="g581">
      <path
         class="uuid-bf0a3892-98ef-4677-a983-994a86323150"
         d="m 1692.21,1199.46 c -0.43,0 -0.86,-0.14 -1.23,-0.42 l -85.77,-66.78 c -0.87,-0.68 -1.03,-1.94 -0.35,-2.81 0.68,-0.87 1.93,-1.03 2.81,-0.35 l 85.77,66.78 c 0.87,0.68 1.03,1.94 0.35,2.81 -0.39,0.51 -0.98,0.77 -1.58,0.77 z"
         id="path580" />
    </g>
    <g
       class="uuid-8b326d10-3d91-49d9-9322-0a4832b86355"
       id="g582">
      <path
         class="uuid-bf0a3892-98ef-4677-a983-994a86323150"
         d="m 1692.21,1224.81 c -0.43,0 -0.86,-0.14 -1.23,-0.42 l -85.77,-66.78 c -0.87,-0.68 -1.03,-1.94 -0.35,-2.81 0.68,-0.87 1.93,-1.03 2.81,-0.35 l 85.77,66.78 c 0.87,0.68 1.03,1.94 0.35,2.81 -0.39,0.51 -0.98,0.77 -1.58,0.77 z"
         id="path581" />
    </g>
    <g
       class="uuid-8b326d10-3d91-49d9-9322-0a4832b86355"
       id="g583">
      <path
         class="uuid-bf0a3892-98ef-4677-a983-994a86323150"
         d="m 1692.21,1252.43 c -0.43,0 -0.86,-0.14 -1.23,-0.42 l -85.77,-66.78 c -0.87,-0.68 -1.03,-1.94 -0.35,-2.81 0.68,-0.87 1.93,-1.03 2.81,-0.35 l 85.77,66.78 c 0.87,0.68 1.03,1.94 0.35,2.81 -0.39,0.51 -0.98,0.77 -1.58,0.77 z"
         id="path582" />
    </g>
    <g
       class="uuid-8b326d10-3d91-49d9-9322-0a4832b86355"
       id="g584">
      <path
         class="uuid-bf0a3892-98ef-4677-a983-994a86323150"
         d="m 1692.21,1280.05 c -0.43,0 -0.86,-0.14 -1.23,-0.42 l -85.77,-66.78 c -0.87,-0.68 -1.03,-1.94 -0.35,-2.81 0.68,-0.87 1.93,-1.03 2.81,-0.35 l 85.77,66.78 c 0.87,0.68 1.03,1.94 0.35,2.81 -0.39,0.51 -0.98,0.77 -1.58,0.77 z"
         id="path583" />
    </g>
    <g
       class="uuid-8b326d10-3d91-49d9-9322-0a4832b86355"
       id="g585">
      <path
         class="uuid-bf0a3892-98ef-4677-a983-994a86323150"
         d="m 1692.21,1307.66 c -0.43,0 -0.86,-0.14 -1.23,-0.42 l -85.77,-66.78 c -0.87,-0.68 -1.03,-1.94 -0.35,-2.81 0.68,-0.87 1.93,-1.03 2.81,-0.35 l 85.77,66.78 c 0.87,0.68 1.03,1.94 0.35,2.81 -0.39,0.51 -0.98,0.77 -1.58,0.77 z"
         id="path584" />
    </g>
    <g
       class="uuid-8b326d10-3d91-49d9-9322-0a4832b86355"
       id="g586">
      <path
         class="uuid-bf0a3892-98ef-4677-a983-994a86323150"
         d="m 1658.28,1307.4 c -0.42,0 -0.84,-0.13 -1.2,-0.4 l -51.84,-38.9 c -0.88,-0.66 -1.06,-1.92 -0.4,-2.8 0.66,-0.88 1.92,-1.06 2.8,-0.4 l 51.84,38.9 c 0.88,0.66 1.06,1.92 0.4,2.8 -0.39,0.52 -0.99,0.8 -1.6,0.8 z"
         id="path585" />
    </g>
  </g>
  <rect
     style="fill:none"
     id="rect588"
     width="641.38086"
     height="632.18494"
     x="3.9816895"
     y="3.9400024" />
  <rect
     style="fill:none"
     id="rect589"
     width="629.58356"
     height="620.58868"
     x="12.123291"
     y="6.8030396" />
  <rect
     style="fill:none"
     id="rect590"
     width="647.68701"
     height="651.40326"
     x="0"
     y="0" />
</svg>
