<?xml version="1.0" encoding="UTF-8" standalone="no"?>
<svg
   viewBox="0 0 908.09995 554.93891"
   version="1.1"
   id="svg820"
   sodipodi:docname="upstairs.svg"
   width="908.09998"
   height="554.9389"
   inkscape:version="1.3.1 (9b9bdc1480, 2023-11-25, custom)"
   xmlns:inkscape="http://www.inkscape.org/namespaces/inkscape"
   xmlns:sodipodi="http://sodipodi.sourceforge.net/DTD/sodipodi-0.dtd"
   xmlns="http://www.w3.org/2000/svg"
   xmlns:svg="http://www.w3.org/2000/svg">
  <sodipodi:namedview
     id="namedview820"
     pagecolor="#ffffff"
     bordercolor="#000000"
     borderopacity="0.25"
     inkscape:showpageshadow="2"
     inkscape:pageopacity="0.0"
     inkscape:pagecheckerboard="0"
     inkscape:deskcolor="#d1d1d1"
     inkscape:zoom="0.73956543"
     inkscape:cx="495.56129"
     inkscape:cy="482.03984"
     inkscape:window-width="2880"
     inkscape:window-height="1655"
     inkscape:window-x="0"
     inkscape:window-y="0"
     inkscape:window-maximized="1"
     inkscape:current-layer="uuid-ac21beb5-042c-4318-a032-0da7179d11f2" />
  <defs
     id="defs1">
    <style
       id="style1">
      .uuid-10dd6f29-fd08-4a28-8bdc-09dd931e9b38 {
        fill: #111d35;
      }

      .uuid-11438a5a-9801-4ec3-a6e3-5ea01c8cd7b6 {
        fill: #14213f;
      }

      .uuid-5df10abb-04e5-49d5-9ce4-a685e4fe87ff {
        fill: #182752;
      }

      .uuid-0463a207-1569-4a47-bd97-e4251bd82c32 {
        fill: #1d3166;
      }

      .uuid-744e645b-bc52-41cb-8a34-92b7a7185764 {
        fill: #fff;
      }

      .uuid-bebdd41e-5ead-43f9-85aa-9d596d4907af {
        fill: #54b848;
      }

      .uuid-6de091d7-d539-4abd-86e6-f4dcbd87944d {
        opacity: .8;
      }

      .uuid-01354be3-50fc-4e4f-a6bb-7a9b86639ca7 {
        opacity: .5;
      }

      .uuid-fc681e02-7c44-4bc5-9230-ce3fa6b1f55b {
        opacity: .3;
      }

      .uuid-3c424c12-9101-4e1c-9424-d563c2e08fb4 {
        fill: #3a538c;
      }

      .uuid-0874ebeb-23a9-4c9f-bd00-693513792f16 {
        fill: #2c4a84;
      }
    </style>
  </defs>
  <g
     id="uuid-ac21beb5-042c-4318-a032-0da7179d11f2"
     data-name="Layer_4"
     transform="translate(-1112.38,-1317.0311)">
    <g
       id="g460">
      <path
         class="uuid-744e645b-bc52-41cb-8a34-92b7a7185764"
         d="m 1211.85,1511.61 c -1.51,0.02 -2.86,0.37 -4.05,1.04 -1.19,0.67 -2.03,1.62 -2.54,2.84 v 11.52 h -3.96 v -18.68 h 3.64 v 4.03 c 0.67,-1.27 1.54,-2.3 2.59,-3.08 1.06,-0.78 2.16,-1.21 3.31,-1.28 h 0.63 c 0.16,0 0.28,0.01 0.38,0.04 v 3.56 z"
         id="path453" />
      <path
         class="uuid-744e645b-bc52-41cb-8a34-92b7a7185764"
         d="m 1223.29,1527.38 c -1.49,0 -2.82,-0.26 -4,-0.77 -1.18,-0.51 -2.2,-1.21 -3.06,-2.11 -0.86,-0.89 -1.53,-1.92 -2,-3.07 -0.47,-1.16 -0.7,-2.38 -0.7,-3.66 0,-1.78 0.41,-3.41 1.22,-4.88 0.81,-1.47 1.96,-2.65 3.44,-3.52 1.48,-0.87 3.17,-1.32 5.09,-1.32 1.92,0 3.7,0.45 5.13,1.34 1.43,0.89 2.54,2.06 3.33,3.51 0.79,1.45 1.19,3.01 1.19,4.67 0,0.29 -0.01,0.55 -0.04,0.8 -0.02,0.25 -0.05,0.45 -0.07,0.59 h -15.12 c 0.12,1.11 0.44,2.08 0.97,2.9 0.53,0.82 1.21,1.46 2.05,1.92 0.84,0.46 1.73,0.69 2.66,0.69 1.08,0 2.09,-0.26 3.04,-0.79 0.95,-0.53 1.59,-1.22 1.93,-2.09 l 3.38,0.97 c -0.41,0.91 -1.03,1.73 -1.87,2.47 -0.84,0.73 -1.82,1.31 -2.93,1.73 -1.12,0.42 -2.33,0.63 -3.65,0.63 z m -5.65,-11.02 h 11.38 c -0.1,-1.08 -0.4,-2.02 -0.92,-2.82 -0.52,-0.8 -1.2,-1.43 -2.04,-1.89 -0.84,-0.46 -1.75,-0.69 -2.73,-0.69 -0.98,0 -1.93,0.23 -2.75,0.69 -0.83,0.46 -1.51,1.09 -2.04,1.89 -0.53,0.8 -0.83,1.74 -0.9,2.82 z"
         id="path454" />
      <path
         class="uuid-744e645b-bc52-41cb-8a34-92b7a7185764"
         d="m 1242.88,1527.38 c -1.58,0 -3.08,-0.26 -4.5,-0.79 -1.42,-0.53 -2.63,-1.31 -3.64,-2.34 l 1.44,-2.63 c 1.1,0.94 2.2,1.63 3.29,2.07 1.09,0.44 2.18,0.67 3.26,0.67 1.08,0 2.03,-0.21 2.72,-0.62 0.68,-0.41 1.03,-1.02 1.03,-1.82 0,-0.59 -0.19,-1.03 -0.56,-1.32 -0.37,-0.29 -0.9,-0.54 -1.58,-0.75 -0.68,-0.21 -1.49,-0.45 -2.43,-0.71 -1.32,-0.4 -2.44,-0.83 -3.37,-1.27 -0.93,-0.44 -1.62,-0.98 -2.07,-1.62 -0.46,-0.64 -0.68,-1.46 -0.68,-2.46 0,-1.19 0.31,-2.21 0.94,-3.07 0.62,-0.86 1.49,-1.52 2.61,-1.98 1.12,-0.46 2.41,-0.7 3.87,-0.7 1.37,0 2.63,0.21 3.8,0.63 1.17,0.42 2.19,1.07 3.08,1.96 l -1.69,2.59 c -0.82,-0.74 -1.67,-1.3 -2.56,-1.66 -0.89,-0.36 -1.84,-0.54 -2.84,-0.54 -0.55,0 -1.1,0.07 -1.64,0.2 -0.54,0.13 -0.99,0.37 -1.35,0.71 -0.36,0.34 -0.54,0.83 -0.54,1.44 0,0.52 0.15,0.93 0.45,1.23 0.3,0.3 0.74,0.55 1.31,0.77 0.57,0.22 1.28,0.45 2.12,0.71 1.46,0.4 2.71,0.82 3.74,1.25 1.03,0.43 1.83,0.97 2.39,1.62 0.56,0.65 0.85,1.55 0.85,2.69 0,1.78 -0.68,3.18 -2.03,4.2 -1.36,1.02 -3.16,1.53 -5.42,1.53 z"
         id="path455" />
      <path
         class="uuid-744e645b-bc52-41cb-8a34-92b7a7185764"
         d="m 1264.33,1526.11 c -0.31,0.14 -0.73,0.32 -1.26,0.52 -0.53,0.2 -1.1,0.38 -1.73,0.52 -0.62,0.14 -1.27,0.22 -1.95,0.22 -0.82,0 -1.57,-0.15 -2.27,-0.45 -0.7,-0.3 -1.25,-0.76 -1.67,-1.38 -0.42,-0.62 -0.63,-1.42 -0.63,-2.4 v -11.75 h -2.52 v -3.06 h 2.52 v -6.19 h 3.96 v 6.19 h 4.1 v 3.06 h -4.1 v 10.45 c 0.05,0.64 0.26,1.12 0.63,1.43 0.37,0.31 0.83,0.46 1.38,0.46 0.55,0 1.09,-0.1 1.6,-0.31 0.52,-0.2 0.87,-0.35 1.06,-0.45 l 0.86,3.13 z"
         id="path456" />
      <path
         class="uuid-744e645b-bc52-41cb-8a34-92b7a7185764"
         d="m 1277.62,1511.61 c -1.51,0.02 -2.86,0.37 -4.05,1.04 -1.19,0.67 -2.04,1.62 -2.54,2.84 v 11.52 h -3.96 v -18.68 h 3.63 v 4.03 c 0.67,-1.27 1.54,-2.3 2.59,-3.08 1.06,-0.78 2.16,-1.21 3.31,-1.28 h 0.63 c 0.16,0 0.28,0.01 0.38,0.04 v 3.56 z"
         id="path457" />
      <path
         class="uuid-744e645b-bc52-41cb-8a34-92b7a7185764"
         d="m 1288.99,1527.38 c -1.49,0 -2.82,-0.26 -4,-0.77 -1.18,-0.51 -2.19,-1.22 -3.04,-2.12 -0.85,-0.9 -1.51,-1.93 -1.96,-3.08 -0.46,-1.15 -0.68,-2.37 -0.68,-3.66 0,-1.29 0.23,-2.57 0.68,-3.73 0.46,-1.15 1.11,-2.18 1.96,-3.08 0.85,-0.9 1.87,-1.61 3.06,-2.12 1.19,-0.51 2.51,-0.77 3.98,-0.77 1.47,0 2.81,0.26 3.98,0.77 1.16,0.51 2.18,1.22 3.04,2.12 0.86,0.9 1.52,1.93 1.98,3.08 0.46,1.15 0.68,2.4 0.68,3.73 0,1.33 -0.23,2.5 -0.68,3.66 -0.46,1.15 -1.11,2.18 -1.96,3.08 -0.85,0.9 -1.87,1.61 -3.06,2.12 -1.19,0.51 -2.52,0.77 -3.98,0.77 z m -5.61,-9.67 c 0,1.21 0.25,2.28 0.76,3.23 0.51,0.95 1.18,1.69 2.02,2.24 0.84,0.54 1.78,0.82 2.81,0.82 1.03,0 2.04,-0.27 2.88,-0.82 0.84,-0.55 1.51,-1.3 2.02,-2.27 0.51,-0.97 0.76,-2.04 0.76,-3.19 0,-1.15 -0.25,-2.25 -0.76,-3.21 -0.5,-0.96 -1.18,-1.71 -2.03,-2.25 -0.85,-0.54 -1.79,-0.82 -2.83,-0.82 -1.04,0 -2,0.28 -2.84,0.85 -0.84,0.57 -1.51,1.33 -2.02,2.27 -0.5,0.95 -0.76,2 -0.76,3.16 z"
         id="path458" />
      <path
         class="uuid-744e645b-bc52-41cb-8a34-92b7a7185764"
         d="m 1310.67,1527.38 c -1.49,0 -2.82,-0.26 -4,-0.77 -1.18,-0.51 -2.19,-1.22 -3.04,-2.12 -0.85,-0.9 -1.51,-1.93 -1.96,-3.08 -0.46,-1.15 -0.68,-2.37 -0.68,-3.66 0,-1.29 0.23,-2.57 0.68,-3.73 0.46,-1.15 1.11,-2.18 1.96,-3.08 0.85,-0.9 1.87,-1.61 3.06,-2.12 1.19,-0.51 2.51,-0.77 3.98,-0.77 1.47,0 2.81,0.26 3.98,0.77 1.16,0.51 2.18,1.22 3.04,2.12 0.86,0.9 1.52,1.93 1.98,3.08 0.46,1.15 0.68,2.4 0.68,3.73 0,1.33 -0.23,2.5 -0.68,3.66 -0.46,1.15 -1.11,2.18 -1.96,3.08 -0.85,0.9 -1.87,1.61 -3.06,2.12 -1.19,0.51 -2.52,0.77 -3.98,0.77 z m -5.62,-9.67 c 0,1.21 0.25,2.28 0.76,3.23 0.51,0.95 1.18,1.69 2.02,2.24 0.84,0.54 1.78,0.82 2.81,0.82 1.03,0 2.04,-0.27 2.88,-0.82 0.84,-0.55 1.51,-1.3 2.02,-2.27 0.51,-0.97 0.76,-2.04 0.76,-3.19 0,-1.15 -0.25,-2.25 -0.76,-3.21 -0.5,-0.96 -1.18,-1.71 -2.03,-2.25 -0.85,-0.54 -1.79,-0.82 -2.83,-0.82 -1.04,0 -2,0.28 -2.84,0.85 -0.84,0.57 -1.51,1.33 -2.02,2.27 -0.5,0.95 -0.76,2 -0.76,3.16 z"
         id="path459" />
      <path
         class="uuid-744e645b-bc52-41cb-8a34-92b7a7185764"
         d="m 1352.68,1527.01 h -3.92 v -10.43 c 0,-1.73 -0.29,-3 -0.88,-3.81 -0.59,-0.81 -1.43,-1.21 -2.54,-1.21 -1.11,0 -2.12,0.41 -3.06,1.23 -0.94,0.82 -1.61,1.88 -2.02,3.18 V 1527 h -3.96 v -10.43 c 0,-1.75 -0.28,-3.03 -0.85,-3.83 -0.56,-0.79 -1.41,-1.19 -2.54,-1.19 -1.13,0 -2.1,0.4 -3.04,1.19 -0.95,0.79 -1.62,1.85 -2.03,3.17 V 1527 h -3.96 v -18.68 h 3.6 v 3.74 c 0.74,-1.28 1.72,-2.28 2.94,-2.98 1.21,-0.7 2.6,-1.05 4.16,-1.05 1.56,0 2.79,0.4 3.69,1.19 0.9,0.79 1.47,1.81 1.71,3.05 0.79,-1.38 1.78,-2.43 2.97,-3.16 1.19,-0.73 2.55,-1.09 4.09,-1.09 1.1,0 2.02,0.2 2.75,0.61 0.73,0.41 1.31,0.96 1.73,1.66 0.42,0.7 0.72,1.51 0.9,2.42 0.18,0.92 0.27,1.88 0.27,2.91 V 1527 Z"
         id="path460" />
    </g>
    <g
       id="g469">
      <path
         class="uuid-744e645b-bc52-41cb-8a34-92b7a7185764"
         d="m 1704.83,1511.61 c -1.51,0.02 -2.86,0.37 -4.05,1.04 -1.19,0.67 -2.03,1.62 -2.54,2.84 v 11.52 h -3.96 v -18.68 h 3.64 v 4.03 c 0.67,-1.27 1.54,-2.3 2.59,-3.08 1.06,-0.78 2.16,-1.21 3.31,-1.28 h 0.63 c 0.16,0 0.28,0.01 0.38,0.04 v 3.56 z"
         id="path462" />
      <path
         class="uuid-744e645b-bc52-41cb-8a34-92b7a7185764"
         d="m 1716.28,1527.38 c -1.49,0 -2.82,-0.26 -4,-0.77 -1.18,-0.51 -2.2,-1.21 -3.06,-2.11 -0.86,-0.89 -1.53,-1.92 -2,-3.07 -0.47,-1.16 -0.7,-2.38 -0.7,-3.66 0,-1.78 0.41,-3.41 1.22,-4.88 0.82,-1.47 1.96,-2.65 3.44,-3.52 1.48,-0.88 3.17,-1.32 5.09,-1.32 1.92,0 3.7,0.45 5.13,1.34 1.43,0.89 2.54,2.06 3.33,3.51 0.79,1.45 1.19,3.01 1.19,4.67 0,0.29 -0.01,0.55 -0.04,0.8 -0.02,0.25 -0.05,0.45 -0.07,0.59 h -15.12 c 0.12,1.11 0.44,2.08 0.97,2.9 0.53,0.82 1.21,1.46 2.05,1.92 0.84,0.46 1.73,0.69 2.66,0.69 1.08,0 2.09,-0.26 3.04,-0.79 0.95,-0.53 1.59,-1.22 1.93,-2.09 l 3.38,0.97 c -0.41,0.91 -1.03,1.73 -1.87,2.47 -0.84,0.73 -1.82,1.31 -2.93,1.73 -1.12,0.42 -2.33,0.63 -3.65,0.63 z m -5.65,-11.02 h 11.38 c -0.1,-1.08 -0.4,-2.02 -0.92,-2.82 -0.52,-0.8 -1.19,-1.43 -2.03,-1.89 -0.84,-0.46 -1.75,-0.69 -2.74,-0.69 -0.99,0 -1.93,0.23 -2.75,0.69 -0.83,0.46 -1.51,1.09 -2.03,1.89 -0.53,0.8 -0.83,1.74 -0.9,2.82 z"
         id="path463" />
      <path
         class="uuid-744e645b-bc52-41cb-8a34-92b7a7185764"
         d="m 1735.87,1527.38 c -1.58,0 -3.08,-0.26 -4.5,-0.79 -1.42,-0.53 -2.63,-1.31 -3.64,-2.34 l 1.44,-2.63 c 1.1,0.94 2.2,1.63 3.29,2.07 1.09,0.44 2.18,0.67 3.26,0.67 1.08,0 2.03,-0.21 2.72,-0.62 0.68,-0.41 1.03,-1.02 1.03,-1.82 0,-0.59 -0.19,-1.03 -0.56,-1.32 -0.37,-0.29 -0.9,-0.54 -1.58,-0.75 -0.68,-0.21 -1.49,-0.45 -2.43,-0.71 -1.32,-0.4 -2.44,-0.83 -3.37,-1.27 -0.92,-0.44 -1.62,-0.98 -2.07,-1.62 -0.46,-0.64 -0.68,-1.46 -0.68,-2.46 0,-1.19 0.31,-2.21 0.94,-3.07 0.63,-0.86 1.49,-1.52 2.61,-1.98 1.12,-0.46 2.41,-0.7 3.87,-0.7 1.37,0 2.63,0.21 3.8,0.63 1.16,0.42 2.19,1.07 3.08,1.96 l -1.69,2.59 c -0.82,-0.74 -1.67,-1.3 -2.56,-1.66 -0.89,-0.36 -1.84,-0.54 -2.84,-0.54 -0.55,0 -1.1,0.07 -1.64,0.2 -0.54,0.13 -0.99,0.37 -1.35,0.71 -0.36,0.34 -0.54,0.83 -0.54,1.44 0,0.52 0.15,0.93 0.45,1.23 0.3,0.3 0.74,0.55 1.31,0.77 0.57,0.22 1.28,0.45 2.12,0.71 1.46,0.4 2.71,0.82 3.74,1.25 1.03,0.43 1.83,0.97 2.39,1.62 0.56,0.65 0.85,1.55 0.85,2.69 0,1.78 -0.68,3.18 -2.03,4.2 -1.36,1.02 -3.16,1.53 -5.42,1.53 z"
         id="path464" />
      <path
         class="uuid-744e645b-bc52-41cb-8a34-92b7a7185764"
         d="m 1757.32,1526.11 c -0.31,0.14 -0.73,0.32 -1.26,0.52 -0.53,0.2 -1.1,0.38 -1.73,0.52 -0.62,0.14 -1.27,0.22 -1.94,0.22 -0.82,0 -1.57,-0.15 -2.27,-0.45 -0.7,-0.3 -1.25,-0.76 -1.67,-1.38 -0.42,-0.62 -0.63,-1.42 -0.63,-2.4 v -11.75 h -2.52 v -3.06 h 2.52 v -6.19 h 3.96 v 6.19 h 4.1 v 3.06 h -4.1 v 10.45 c 0.05,0.64 0.26,1.12 0.63,1.43 0.37,0.31 0.83,0.46 1.39,0.46 0.56,0 1.08,-0.1 1.6,-0.31 0.52,-0.2 0.87,-0.35 1.06,-0.45 l 0.86,3.13 z"
         id="path465" />
      <path
         class="uuid-744e645b-bc52-41cb-8a34-92b7a7185764"
         d="m 1770.6,1511.61 c -1.51,0.02 -2.86,0.37 -4.05,1.04 -1.19,0.67 -2.03,1.62 -2.54,2.84 v 11.52 h -3.96 v -18.68 h 3.64 v 4.03 c 0.67,-1.27 1.54,-2.3 2.59,-3.08 1.06,-0.78 2.16,-1.21 3.31,-1.28 h 0.63 c 0.16,0 0.28,0.01 0.38,0.04 v 3.56 z"
         id="path466" />
      <path
         class="uuid-744e645b-bc52-41cb-8a34-92b7a7185764"
         d="m 1781.98,1527.38 c -1.49,0 -2.82,-0.26 -4,-0.77 -1.18,-0.51 -2.19,-1.22 -3.04,-2.12 -0.85,-0.9 -1.51,-1.93 -1.96,-3.08 -0.45,-1.15 -0.68,-2.37 -0.68,-3.66 0,-1.29 0.23,-2.57 0.68,-3.73 0.46,-1.15 1.11,-2.18 1.96,-3.08 0.85,-0.9 1.87,-1.61 3.06,-2.12 1.19,-0.51 2.51,-0.77 3.98,-0.77 1.47,0 2.81,0.26 3.98,0.77 1.16,0.51 2.18,1.22 3.04,2.12 0.86,0.9 1.52,1.93 1.98,3.08 0.46,1.15 0.68,2.4 0.68,3.73 0,1.33 -0.23,2.5 -0.68,3.66 -0.45,1.16 -1.11,2.18 -1.96,3.08 -0.85,0.9 -1.87,1.61 -3.06,2.12 -1.19,0.51 -2.51,0.77 -3.98,0.77 z m -5.62,-9.67 c 0,1.21 0.25,2.28 0.76,3.23 0.5,0.95 1.18,1.69 2.02,2.24 0.84,0.54 1.78,0.82 2.81,0.82 1.03,0 2.04,-0.27 2.88,-0.82 0.84,-0.55 1.51,-1.3 2.02,-2.27 0.51,-0.97 0.76,-2.04 0.76,-3.19 0,-1.15 -0.25,-2.25 -0.76,-3.21 -0.5,-0.96 -1.18,-1.71 -2.03,-2.25 -0.85,-0.54 -1.79,-0.82 -2.83,-0.82 -1.04,0 -2,0.28 -2.84,0.85 -0.84,0.57 -1.51,1.33 -2.02,2.27 -0.5,0.95 -0.76,2 -0.76,3.16 z"
         id="path467" />
      <path
         class="uuid-744e645b-bc52-41cb-8a34-92b7a7185764"
         d="m 1803.65,1527.38 c -1.49,0 -2.82,-0.26 -4,-0.77 -1.18,-0.51 -2.19,-1.22 -3.04,-2.12 -0.85,-0.9 -1.51,-1.93 -1.96,-3.08 -0.45,-1.15 -0.68,-2.37 -0.68,-3.66 0,-1.29 0.23,-2.57 0.68,-3.73 0.46,-1.15 1.11,-2.18 1.96,-3.08 0.85,-0.9 1.87,-1.61 3.06,-2.12 1.19,-0.51 2.51,-0.77 3.98,-0.77 1.47,0 2.81,0.26 3.98,0.77 1.16,0.51 2.18,1.22 3.04,2.12 0.86,0.9 1.52,1.93 1.98,3.08 0.46,1.15 0.68,2.4 0.68,3.73 0,1.33 -0.23,2.5 -0.68,3.66 -0.45,1.16 -1.11,2.18 -1.96,3.08 -0.85,0.9 -1.87,1.61 -3.06,2.12 -1.19,0.51 -2.51,0.77 -3.98,0.77 z m -5.61,-9.67 c 0,1.21 0.25,2.28 0.76,3.23 0.5,0.95 1.18,1.69 2.02,2.24 0.84,0.54 1.78,0.82 2.81,0.82 1.03,0 2.04,-0.27 2.88,-0.82 0.84,-0.55 1.51,-1.3 2.02,-2.27 0.51,-0.97 0.76,-2.04 0.76,-3.19 0,-1.15 -0.25,-2.25 -0.76,-3.21 -0.5,-0.96 -1.18,-1.71 -2.03,-2.25 -0.85,-0.54 -1.79,-0.82 -2.83,-0.82 -1.04,0 -2,0.28 -2.84,0.85 -0.84,0.57 -1.51,1.33 -2.02,2.27 -0.5,0.95 -0.76,2 -0.76,3.16 z"
         id="path468" />
      <path
         class="uuid-744e645b-bc52-41cb-8a34-92b7a7185764"
         d="m 1845.66,1527.01 h -3.92 v -10.43 c 0,-1.73 -0.29,-3 -0.88,-3.81 -0.59,-0.81 -1.43,-1.21 -2.54,-1.21 -1.11,0 -2.12,0.41 -3.06,1.23 -0.94,0.82 -1.61,1.88 -2.02,3.18 V 1527 h -3.96 v -10.43 c 0,-1.75 -0.28,-3.03 -0.85,-3.83 -0.56,-0.79 -1.41,-1.19 -2.54,-1.19 -1.13,0 -2.09,0.4 -3.04,1.19 -0.95,0.79 -1.63,1.85 -2.03,3.17 V 1527 h -3.96 v -18.68 h 3.6 v 3.74 c 0.74,-1.28 1.72,-2.28 2.93,-2.98 1.21,-0.7 2.6,-1.05 4.16,-1.05 1.56,0 2.79,0.4 3.69,1.19 0.9,0.8 1.47,1.81 1.71,3.05 0.79,-1.38 1.78,-2.43 2.97,-3.16 1.19,-0.73 2.55,-1.09 4.09,-1.09 1.1,0 2.02,0.2 2.75,0.61 0.73,0.4 1.31,0.96 1.73,1.66 0.42,0.7 0.72,1.51 0.9,2.42 0.18,0.92 0.27,1.88 0.27,2.91 V 1527 Z"
         id="path469" />
    </g>
    <path
       class="uuid-bebdd41e-5ead-43f9-85aa-9d596d4907af"
       d="m 1562.76,1755.57 c -0.08,0 -0.17,0 -0.25,-0.02 -1.1,-0.14 -1.87,-1.14 -1.74,-2.23 l 9.04,-72.28 c 0.14,-1.1 1.14,-1.88 2.23,-1.74 1.1,0.14 1.87,1.14 1.74,2.23 l -9.04,72.28 c -0.13,1.01 -0.99,1.75 -1.98,1.75 z"
       id="path491" />
    <g
       id="g519">
      <path
         class="uuid-744e645b-bc52-41cb-8a34-92b7a7185764"
         d="m 1393.74,1762.36 c -1.51,0.02 -2.86,0.37 -4.05,1.04 -1.19,0.67 -2.03,1.62 -2.54,2.84 v 11.52 h -3.96 v -18.68 h 3.64 v 4.03 c 0.67,-1.27 1.54,-2.3 2.59,-3.08 1.06,-0.78 2.16,-1.21 3.31,-1.28 h 0.63 c 0.16,0 0.28,0.01 0.38,0.04 v 3.56 z"
         id="path512" />
      <path
         class="uuid-744e645b-bc52-41cb-8a34-92b7a7185764"
         d="m 1405.19,1778.13 c -1.49,0 -2.82,-0.26 -4,-0.77 -1.18,-0.51 -2.2,-1.21 -3.06,-2.11 -0.86,-0.89 -1.53,-1.92 -2,-3.07 -0.47,-1.16 -0.7,-2.38 -0.7,-3.66 0,-1.78 0.41,-3.41 1.22,-4.88 0.81,-1.47 1.96,-2.65 3.44,-3.52 1.48,-0.87 3.17,-1.32 5.09,-1.32 1.92,0 3.7,0.45 5.13,1.34 1.43,0.89 2.54,2.06 3.33,3.51 0.79,1.45 1.19,3.01 1.19,4.67 0,0.29 -0.01,0.55 -0.04,0.8 -0.02,0.25 -0.05,0.45 -0.07,0.59 h -15.12 c 0.12,1.11 0.44,2.08 0.97,2.9 0.53,0.82 1.21,1.46 2.05,1.92 0.84,0.46 1.73,0.69 2.66,0.69 1.08,0 2.09,-0.26 3.04,-0.79 0.95,-0.53 1.59,-1.22 1.93,-2.09 l 3.38,0.97 c -0.41,0.91 -1.03,1.73 -1.87,2.47 -0.84,0.73 -1.82,1.31 -2.93,1.73 -1.12,0.42 -2.33,0.63 -3.65,0.63 z m -5.66,-11.02 h 11.38 c -0.1,-1.08 -0.4,-2.02 -0.92,-2.82 -0.52,-0.8 -1.2,-1.43 -2.04,-1.89 -0.84,-0.46 -1.75,-0.69 -2.73,-0.69 -0.98,0 -1.93,0.23 -2.75,0.69 -0.83,0.46 -1.51,1.09 -2.04,1.89 -0.53,0.8 -0.83,1.74 -0.9,2.82 z"
         id="path513" />
      <path
         class="uuid-744e645b-bc52-41cb-8a34-92b7a7185764"
         d="m 1424.77,1778.13 c -1.58,0 -3.08,-0.26 -4.5,-0.79 -1.42,-0.53 -2.63,-1.31 -3.64,-2.34 l 1.44,-2.63 c 1.1,0.94 2.2,1.63 3.29,2.07 1.09,0.44 2.18,0.67 3.26,0.67 1.08,0 2.03,-0.21 2.72,-0.62 0.68,-0.41 1.03,-1.02 1.03,-1.82 0,-0.59 -0.19,-1.03 -0.56,-1.32 -0.37,-0.29 -0.9,-0.54 -1.58,-0.75 -0.68,-0.21 -1.49,-0.45 -2.43,-0.71 -1.32,-0.4 -2.44,-0.83 -3.37,-1.27 -0.93,-0.44 -1.62,-0.98 -2.07,-1.62 -0.46,-0.64 -0.68,-1.46 -0.68,-2.46 0,-1.19 0.31,-2.21 0.94,-3.07 0.62,-0.86 1.49,-1.52 2.61,-1.98 1.12,-0.46 2.41,-0.7 3.87,-0.7 1.37,0 2.63,0.21 3.8,0.63 1.17,0.42 2.19,1.07 3.08,1.96 l -1.69,2.59 c -0.82,-0.74 -1.67,-1.3 -2.56,-1.66 -0.89,-0.36 -1.84,-0.54 -2.84,-0.54 -0.55,0 -1.1,0.07 -1.64,0.2 -0.54,0.13 -0.99,0.37 -1.35,0.71 -0.36,0.34 -0.54,0.83 -0.54,1.44 0,0.52 0.15,0.93 0.45,1.23 0.3,0.3 0.74,0.55 1.31,0.77 0.57,0.22 1.28,0.45 2.12,0.71 1.46,0.4 2.71,0.82 3.74,1.25 1.03,0.43 1.83,0.97 2.39,1.62 0.56,0.65 0.85,1.55 0.85,2.69 0,1.78 -0.68,3.18 -2.03,4.2 -1.36,1.02 -3.16,1.53 -5.42,1.53 z"
         id="path514" />
      <path
         class="uuid-744e645b-bc52-41cb-8a34-92b7a7185764"
         d="m 1446.22,1776.87 c -0.31,0.14 -0.73,0.32 -1.26,0.52 -0.53,0.2 -1.1,0.38 -1.73,0.52 -0.62,0.14 -1.27,0.22 -1.95,0.22 -0.82,0 -1.57,-0.15 -2.27,-0.45 -0.7,-0.3 -1.25,-0.76 -1.67,-1.38 -0.42,-0.62 -0.63,-1.42 -0.63,-2.4 v -11.75 h -2.52 v -3.06 h 2.52 v -6.19 h 3.96 v 6.19 h 4.1 v 3.06 h -4.1 v 10.45 c 0.05,0.64 0.26,1.12 0.63,1.43 0.37,0.31 0.83,0.46 1.38,0.46 0.55,0 1.09,-0.1 1.6,-0.31 0.52,-0.2 0.87,-0.35 1.06,-0.45 l 0.86,3.13 z"
         id="path515" />
      <path
         class="uuid-744e645b-bc52-41cb-8a34-92b7a7185764"
         d="m 1459.51,1762.36 c -1.51,0.02 -2.86,0.37 -4.05,1.04 -1.19,0.67 -2.04,1.62 -2.54,2.84 v 11.52 h -3.96 v -18.68 h 3.63 v 4.03 c 0.67,-1.27 1.54,-2.3 2.59,-3.08 1.06,-0.78 2.16,-1.21 3.31,-1.28 h 0.63 c 0.16,0 0.28,0.01 0.38,0.04 v 3.56 z"
         id="path516" />
      <path
         class="uuid-744e645b-bc52-41cb-8a34-92b7a7185764"
         d="m 1470.88,1778.13 c -1.49,0 -2.82,-0.26 -4,-0.77 -1.18,-0.51 -2.19,-1.22 -3.04,-2.12 -0.85,-0.9 -1.51,-1.93 -1.96,-3.08 -0.46,-1.15 -0.68,-2.37 -0.68,-3.66 0,-1.29 0.23,-2.57 0.68,-3.73 0.46,-1.15 1.11,-2.18 1.96,-3.08 0.85,-0.9 1.87,-1.61 3.06,-2.12 1.19,-0.51 2.51,-0.77 3.98,-0.77 1.47,0 2.81,0.26 3.98,0.77 1.16,0.51 2.18,1.22 3.04,2.12 0.86,0.9 1.52,1.93 1.98,3.08 0.46,1.15 0.68,2.4 0.68,3.73 0,1.33 -0.23,2.5 -0.68,3.66 -0.46,1.15 -1.11,2.18 -1.96,3.08 -0.85,0.9 -1.87,1.61 -3.06,2.12 -1.19,0.51 -2.52,0.77 -3.98,0.77 z m -5.61,-9.67 c 0,1.21 0.25,2.28 0.76,3.23 0.51,0.95 1.18,1.69 2.02,2.24 0.84,0.54 1.78,0.82 2.81,0.82 1.03,0 2.04,-0.27 2.88,-0.82 0.84,-0.55 1.51,-1.3 2.02,-2.27 0.51,-0.97 0.76,-2.04 0.76,-3.19 0,-1.15 -0.25,-2.25 -0.76,-3.21 -0.5,-0.96 -1.18,-1.71 -2.03,-2.25 -0.85,-0.54 -1.79,-0.82 -2.83,-0.82 -1.04,0 -2,0.28 -2.84,0.85 -0.84,0.57 -1.51,1.33 -2.02,2.27 -0.5,0.95 -0.76,2 -0.76,3.16 z"
         id="path517" />
      <path
         class="uuid-744e645b-bc52-41cb-8a34-92b7a7185764"
         d="m 1492.56,1778.13 c -1.49,0 -2.82,-0.26 -4,-0.77 -1.18,-0.51 -2.19,-1.22 -3.04,-2.12 -0.85,-0.9 -1.51,-1.93 -1.96,-3.08 -0.46,-1.15 -0.68,-2.37 -0.68,-3.66 0,-1.29 0.23,-2.57 0.68,-3.73 0.46,-1.15 1.11,-2.18 1.96,-3.08 0.85,-0.9 1.87,-1.61 3.06,-2.12 1.19,-0.51 2.51,-0.77 3.98,-0.77 1.47,0 2.81,0.26 3.98,0.77 1.16,0.51 2.18,1.22 3.04,2.12 0.86,0.9 1.52,1.93 1.98,3.08 0.46,1.15 0.68,2.4 0.68,3.73 0,1.33 -0.23,2.5 -0.68,3.66 -0.46,1.15 -1.11,2.18 -1.96,3.08 -0.85,0.9 -1.87,1.61 -3.06,2.12 -1.19,0.51 -2.52,0.77 -3.98,0.77 z m -5.62,-9.67 c 0,1.21 0.25,2.28 0.76,3.23 0.51,0.95 1.18,1.69 2.02,2.24 0.84,0.54 1.78,0.82 2.81,0.82 1.03,0 2.04,-0.27 2.88,-0.82 0.84,-0.55 1.51,-1.3 2.02,-2.27 0.51,-0.97 0.76,-2.04 0.76,-3.19 0,-1.15 -0.25,-2.25 -0.76,-3.21 -0.5,-0.96 -1.18,-1.71 -2.03,-2.25 -0.85,-0.54 -1.79,-0.82 -2.83,-0.82 -1.04,0 -2,0.28 -2.84,0.85 -0.84,0.57 -1.51,1.33 -2.02,2.27 -0.5,0.95 -0.76,2 -0.76,3.16 z"
         id="path518" />
      <path
         class="uuid-744e645b-bc52-41cb-8a34-92b7a7185764"
         d="m 1534.57,1777.77 h -3.92 v -10.43 c 0,-1.73 -0.29,-3 -0.88,-3.81 -0.59,-0.81 -1.43,-1.21 -2.54,-1.21 -1.11,0 -2.12,0.41 -3.06,1.23 -0.94,0.82 -1.61,1.88 -2.02,3.18 v 11.03 h -3.96 v -10.43 c 0,-1.75 -0.28,-3.03 -0.85,-3.83 -0.56,-0.79 -1.41,-1.19 -2.54,-1.19 -1.13,0 -2.1,0.4 -3.04,1.19 -0.95,0.79 -1.62,1.85 -2.03,3.17 v 11.09 h -3.96 v -18.68 h 3.6 v 3.74 c 0.74,-1.28 1.72,-2.28 2.94,-2.98 1.21,-0.7 2.6,-1.05 4.16,-1.05 1.56,0 2.79,0.4 3.69,1.19 0.9,0.79 1.47,1.81 1.71,3.05 0.79,-1.38 1.78,-2.43 2.97,-3.16 1.19,-0.73 2.55,-1.09 4.09,-1.09 1.1,0 2.02,0.2 2.75,0.61 0.73,0.41 1.31,0.96 1.73,1.66 0.42,0.7 0.72,1.51 0.9,2.42 0.18,0.92 0.27,1.88 0.27,2.91 v 11.38 z"
         id="path519" />
    </g>
    <g
       id="g528">
      <path
         class="uuid-744e645b-bc52-41cb-8a34-92b7a7185764"
         d="m 1484.09,1511.61 c -1.51,0.02 -2.86,0.37 -4.05,1.04 -1.19,0.67 -2.03,1.62 -2.54,2.84 v 11.52 h -3.96 v -18.68 h 3.64 v 4.03 c 0.67,-1.27 1.54,-2.3 2.59,-3.08 1.06,-0.78 2.16,-1.21 3.31,-1.28 h 0.63 c 0.16,0 0.28,0.01 0.38,0.04 v 3.56 z"
         id="path521" />
      <path
         class="uuid-744e645b-bc52-41cb-8a34-92b7a7185764"
         d="m 1495.54,1527.38 c -1.49,0 -2.82,-0.26 -4,-0.77 -1.18,-0.51 -2.2,-1.21 -3.06,-2.11 -0.86,-0.89 -1.53,-1.92 -2,-3.07 -0.47,-1.16 -0.7,-2.38 -0.7,-3.66 0,-1.78 0.41,-3.41 1.22,-4.88 0.82,-1.47 1.96,-2.65 3.44,-3.52 1.48,-0.88 3.17,-1.32 5.09,-1.32 1.92,0 3.7,0.45 5.13,1.34 1.43,0.89 2.54,2.06 3.33,3.51 0.79,1.45 1.19,3.01 1.19,4.67 0,0.29 -0.01,0.55 -0.04,0.8 -0.02,0.25 -0.05,0.45 -0.07,0.59 h -15.12 c 0.12,1.11 0.44,2.08 0.97,2.9 0.53,0.82 1.21,1.46 2.05,1.92 0.84,0.46 1.73,0.69 2.66,0.69 1.08,0 2.09,-0.26 3.04,-0.79 0.95,-0.53 1.59,-1.22 1.93,-2.09 l 3.38,0.97 c -0.41,0.91 -1.03,1.73 -1.87,2.47 -0.84,0.73 -1.82,1.31 -2.93,1.73 -1.12,0.42 -2.33,0.63 -3.65,0.63 z m -5.65,-11.02 h 11.38 c -0.1,-1.08 -0.4,-2.02 -0.92,-2.82 -0.52,-0.8 -1.19,-1.43 -2.03,-1.89 -0.84,-0.46 -1.75,-0.69 -2.74,-0.69 -0.99,0 -1.93,0.23 -2.75,0.69 -0.83,0.46 -1.51,1.09 -2.03,1.89 -0.53,0.8 -0.83,1.74 -0.9,2.82 z"
         id="path522" />
      <path
         class="uuid-744e645b-bc52-41cb-8a34-92b7a7185764"
         d="m 1515.12,1527.38 c -1.58,0 -3.08,-0.26 -4.5,-0.79 -1.42,-0.53 -2.63,-1.31 -3.64,-2.34 l 1.44,-2.63 c 1.1,0.94 2.2,1.63 3.29,2.07 1.09,0.44 2.18,0.67 3.26,0.67 1.08,0 2.03,-0.21 2.72,-0.62 0.68,-0.41 1.03,-1.02 1.03,-1.82 0,-0.59 -0.19,-1.03 -0.56,-1.32 -0.37,-0.29 -0.9,-0.54 -1.58,-0.75 -0.68,-0.21 -1.49,-0.45 -2.43,-0.71 -1.32,-0.4 -2.44,-0.83 -3.37,-1.27 -0.92,-0.44 -1.62,-0.98 -2.07,-1.62 -0.46,-0.64 -0.68,-1.46 -0.68,-2.46 0,-1.19 0.31,-2.21 0.94,-3.07 0.63,-0.86 1.49,-1.52 2.61,-1.98 1.12,-0.46 2.41,-0.7 3.87,-0.7 1.37,0 2.63,0.21 3.8,0.63 1.16,0.42 2.19,1.07 3.08,1.96 l -1.69,2.59 c -0.82,-0.74 -1.67,-1.3 -2.56,-1.66 -0.89,-0.36 -1.84,-0.54 -2.84,-0.54 -0.55,0 -1.1,0.07 -1.64,0.2 -0.54,0.13 -0.99,0.37 -1.35,0.71 -0.36,0.34 -0.54,0.83 -0.54,1.44 0,0.52 0.15,0.93 0.45,1.23 0.3,0.3 0.74,0.55 1.31,0.77 0.57,0.22 1.28,0.45 2.12,0.71 1.46,0.4 2.71,0.82 3.74,1.25 1.03,0.43 1.83,0.97 2.39,1.62 0.56,0.65 0.85,1.55 0.85,2.69 0,1.78 -0.68,3.18 -2.03,4.2 -1.36,1.02 -3.16,1.53 -5.42,1.53 z"
         id="path523" />
      <path
         class="uuid-744e645b-bc52-41cb-8a34-92b7a7185764"
         d="m 1536.58,1526.11 c -0.31,0.14 -0.73,0.32 -1.26,0.52 -0.53,0.2 -1.1,0.38 -1.73,0.52 -0.62,0.14 -1.27,0.22 -1.94,0.22 -0.82,0 -1.57,-0.15 -2.27,-0.45 -0.7,-0.3 -1.25,-0.76 -1.67,-1.38 -0.42,-0.62 -0.63,-1.42 -0.63,-2.4 v -11.75 h -2.52 v -3.06 h 2.52 v -6.19 h 3.96 v 6.19 h 4.1 v 3.06 h -4.1 v 10.45 c 0.05,0.64 0.26,1.12 0.63,1.43 0.37,0.31 0.83,0.46 1.39,0.46 0.56,0 1.08,-0.1 1.6,-0.31 0.52,-0.2 0.87,-0.35 1.06,-0.45 l 0.86,3.13 z"
         id="path524" />
      <path
         class="uuid-744e645b-bc52-41cb-8a34-92b7a7185764"
         d="m 1549.86,1511.61 c -1.51,0.02 -2.86,0.37 -4.05,1.04 -1.19,0.67 -2.03,1.62 -2.54,2.84 v 11.52 h -3.96 v -18.68 h 3.64 v 4.03 c 0.67,-1.27 1.54,-2.3 2.59,-3.08 1.06,-0.78 2.16,-1.21 3.31,-1.28 h 0.63 c 0.16,0 0.28,0.01 0.38,0.04 v 3.56 z"
         id="path525" />
      <path
         class="uuid-744e645b-bc52-41cb-8a34-92b7a7185764"
         d="m 1561.24,1527.38 c -1.49,0 -2.82,-0.26 -4,-0.77 -1.18,-0.51 -2.19,-1.22 -3.04,-2.12 -0.85,-0.9 -1.51,-1.93 -1.96,-3.08 -0.45,-1.15 -0.68,-2.37 -0.68,-3.66 0,-1.29 0.23,-2.57 0.68,-3.73 0.46,-1.15 1.11,-2.18 1.96,-3.08 0.85,-0.9 1.87,-1.61 3.06,-2.12 1.19,-0.51 2.51,-0.77 3.98,-0.77 1.47,0 2.81,0.26 3.98,0.77 1.16,0.51 2.18,1.22 3.04,2.12 0.86,0.9 1.52,1.93 1.98,3.08 0.46,1.15 0.68,2.4 0.68,3.73 0,1.33 -0.23,2.5 -0.68,3.66 -0.45,1.16 -1.11,2.18 -1.96,3.08 -0.85,0.9 -1.87,1.61 -3.06,2.12 -1.19,0.51 -2.51,0.77 -3.98,0.77 z m -5.62,-9.67 c 0,1.21 0.25,2.28 0.76,3.23 0.5,0.95 1.18,1.69 2.02,2.24 0.84,0.54 1.78,0.82 2.81,0.82 1.03,0 2.04,-0.27 2.88,-0.82 0.84,-0.55 1.51,-1.3 2.02,-2.27 0.51,-0.97 0.76,-2.04 0.76,-3.19 0,-1.15 -0.25,-2.25 -0.76,-3.21 -0.5,-0.96 -1.18,-1.71 -2.03,-2.25 -0.85,-0.54 -1.79,-0.82 -2.83,-0.82 -1.04,0 -2,0.28 -2.84,0.85 -0.84,0.57 -1.51,1.33 -2.02,2.27 -0.5,0.95 -0.76,2 -0.76,3.16 z"
         id="path526" />
      <path
         class="uuid-744e645b-bc52-41cb-8a34-92b7a7185764"
         d="m 1582.91,1527.38 c -1.49,0 -2.82,-0.26 -4,-0.77 -1.18,-0.51 -2.19,-1.22 -3.04,-2.12 -0.85,-0.9 -1.51,-1.93 -1.96,-3.08 -0.45,-1.15 -0.68,-2.37 -0.68,-3.66 0,-1.29 0.23,-2.57 0.68,-3.73 0.46,-1.15 1.11,-2.18 1.96,-3.08 0.85,-0.9 1.87,-1.61 3.06,-2.12 1.19,-0.51 2.51,-0.77 3.98,-0.77 1.47,0 2.81,0.26 3.98,0.77 1.16,0.51 2.18,1.22 3.04,2.12 0.86,0.9 1.52,1.93 1.98,3.08 0.46,1.15 0.68,2.4 0.68,3.73 0,1.33 -0.23,2.5 -0.68,3.66 -0.45,1.16 -1.11,2.18 -1.96,3.08 -0.85,0.9 -1.87,1.61 -3.06,2.12 -1.19,0.51 -2.51,0.77 -3.98,0.77 z m -5.62,-9.67 c 0,1.21 0.25,2.28 0.76,3.23 0.5,0.95 1.18,1.69 2.02,2.24 0.84,0.54 1.78,0.82 2.81,0.82 1.03,0 2.04,-0.27 2.88,-0.82 0.84,-0.55 1.51,-1.3 2.02,-2.27 0.51,-0.97 0.76,-2.04 0.76,-3.19 0,-1.15 -0.25,-2.25 -0.76,-3.21 -0.5,-0.96 -1.18,-1.71 -2.03,-2.25 -0.85,-0.54 -1.79,-0.82 -2.83,-0.82 -1.04,0 -2,0.28 -2.84,0.85 -0.84,0.57 -1.51,1.33 -2.02,2.27 -0.5,0.95 -0.76,2 -0.76,3.16 z"
         id="path527" />
      <path
         class="uuid-744e645b-bc52-41cb-8a34-92b7a7185764"
         d="M 1624.92,1527.01 H 1621 v -10.43 c 0,-1.73 -0.29,-3 -0.88,-3.81 -0.59,-0.81 -1.43,-1.21 -2.54,-1.21 -1.11,0 -2.12,0.41 -3.06,1.23 -0.94,0.82 -1.61,1.88 -2.02,3.18 V 1527 h -3.96 v -10.43 c 0,-1.75 -0.28,-3.03 -0.85,-3.83 -0.56,-0.79 -1.41,-1.19 -2.54,-1.19 -1.13,0 -2.09,0.4 -3.04,1.19 -0.95,0.79 -1.63,1.85 -2.03,3.17 V 1527 h -3.96 v -18.68 h 3.6 v 3.74 c 0.74,-1.28 1.72,-2.28 2.93,-2.98 1.21,-0.7 2.6,-1.05 4.16,-1.05 1.56,0 2.79,0.4 3.69,1.19 0.9,0.8 1.47,1.81 1.71,3.05 0.79,-1.38 1.78,-2.43 2.97,-3.16 1.19,-0.73 2.55,-1.09 4.09,-1.09 1.1,0 2.02,0.2 2.75,0.61 0.73,0.4 1.31,0.96 1.73,1.66 0.42,0.7 0.72,1.51 0.9,2.42 0.18,0.92 0.27,1.88 0.27,2.91 V 1527 Z"
         id="path528" />
    </g>
    <path
       class="uuid-3c424c12-9101-4e1c-9424-d563c2e08fb4"
       d="m 1363.42,1716.04 h -249.03 c -1.1,0 -2,-0.9 -2,-2 v -394.73 c 0,-1.1 0.9,-2 2,-2 h 79.06 c 1.1,0 2,0.9 2,2 0,1.1 -0.9,2 -2,2 h -77.06 v 390.73 h 245.03 v -58.22 c 0,-1.1 0.9,-2 2,-2 h 77.61 v -330.51 h -157.04 c -1.1,0 -2,-0.9 -2,-2 0,-1.1 0.9,-2 2,-2 h 159.04 c 1.1,0 2,0.9 2,2 v 334.51 c 0,1.1 -0.9,2 -2,2 h -77.61 v 58.22 c 0,1.1 -0.9,2 -2,2 z"
       id="path560" />
    <path
       class="uuid-3c424c12-9101-4e1c-9424-d563c2e08fb4"
       d="m 1646.16,1655.82 h -203.97 c -1.1,0 -2,-0.9 -2,-2 v -334.51 c 0,-1.1 0.9,-2 2,-2 h 17.22 c 1.1,0 2,0.9 2,2 0,1.1 -0.9,2 -2,2 h -15.22 v 330.51 h 199.97 v -330.51 h -91.57 c -1.1,0 -2,-0.9 -2,-2 0,-1.1 0.9,-2 2,-2 h 93.57 c 1.1,0 2,0.9 2,2 v 334.51 c 0,1.1 -0.9,2 -2,2 z"
       id="path561" />
    <path
       class="uuid-3c424c12-9101-4e1c-9424-d563c2e08fb4"
       d="m 1880.93,1655.82 h -60.1 c -1.1,0 -2,-0.9 -2,-2 0,-1.1 0.9,-2 2,-2 h 58.1 v -330.51 h -231.09 v 330.51 h 85.09 c 1.1,0 2,0.9 2,2 0,1.1 -0.9,2 -2,2 h -87.09 c -1.1,0 -2,-0.9 -2,-2 v -334.51 c 0,-1.1 0.9,-2 2,-2 h 235.09 c 1.1,0 2,0.9 2,2 v 334.51 c 0,1.1 -0.9,2 -2,2 z"
       id="path562" />
    <path
       class="uuid-3c424c12-9101-4e1c-9424-d563c2e08fb4"
       d="m 1562.79,1815.98 h -448.41 c -1.1,0 -2,-0.9 -2,-2 v -99.41 c 0,-1.1 0.9,-2 2,-2 h 247.03 v -58.67 c 0,-1.1 0.9,-2 2,-2 h 199 c 1.1,0 2,0.9 2,2 v 17.13 c 0,1.1 -0.9,2 -2,2 -1.1,0 -2,-0.9 -2,-2 v -15.13 h -195 v 58.67 c 0,1.1 -0.9,2 -2,2 h -247.03 v 95.41 h 444.4 l -0.2,-50.59 c 0,-1.1 0.89,-2 1.99,-2.01 v 0 c 1.1,0 2,0.89 2,1.99 l 0.2,52.6 c 0,0.53 -0.21,1.04 -0.58,1.42 -0.38,0.38 -0.88,0.59 -1.42,0.59 z"
       id="path566" />
    <path
       class="uuid-3c424c12-9101-4e1c-9424-d563c2e08fb4"
       d="m 1992.12,1871.97 h -47.62 c -1.1,0 -2,-0.9 -2,-2 0,-1.1 0.9,-2 2,-2 h 45.62 v -53.99 c 0,-0.44 0.14,-0.84 0.38,-1.17 V 1655.9 h -173.62 c -1.1,0 -2,-0.9 -2,-2 0,-1.1 0.9,-2 2,-2 h 175.62 c 1.1,0 2,0.9 2,2 v 160.08 c 0,0.44 -0.14,0.84 -0.38,1.17 v 54.82 c 0,1.1 -0.9,2 -2,2 z"
       id="path567" />
    <path
       class="uuid-3c424c12-9101-4e1c-9424-d563c2e08fb4"
       d="m 1562.26,1673.41 c -1.1,0 -2,-0.89 -2,-1.99 l -0.06,-17.51 c 0,-0.53 0.21,-1.04 0.58,-1.42 0.37,-0.38 0.89,-0.59 1.42,-0.59 h 173.93 c 1.1,0 2,0.9 2,2 0,1.1 -0.9,2 -2,2 h -171.92 l 0.06,15.5 c 0,1.1 -0.89,2 -1.99,2.01 v 0 z"
       id="path568" />
    <path
       class="uuid-3c424c12-9101-4e1c-9424-d563c2e08fb4"
       d="m 1868.45,1871.97 h -32.94 c -1.1,0 -2,-0.9 -2,-2 v -53.99 h -270.73 c -1.1,0 -2,-0.89 -2,-1.99 l -0.19,-51.94 c 0,-1.1 0.89,-2 1.99,-2.01 v 0 c 1.1,0 2,0.89 2,1.99 l 0.18,49.95 h 270.74 c 1.1,0 2,0.9 2,2 v 53.99 h 30.94 c 1.1,0 2,0.9 2,2 0,1.1 -0.9,2 -2,2 z"
       id="path569" />
    <path
       class="uuid-3c424c12-9101-4e1c-9424-d563c2e08fb4"
       d="m 2018.48,1321.31 h -170.72 c -1.1,0 -2,-0.9 -2,-2 0,-1.1 0.9,-2 2,-2 h 170.72 c 1.1,0 2,0.9 2,2 0,1.1 -0.9,2 -2,2 z"
       id="path627" />
    <path
       class="uuid-bebdd41e-5ead-43f9-85aa-9d596d4907af"
       d="m 1938.57,1871.62 c -0.1,0 -0.21,0 -0.31,-0.02 l -63.34,-9.79 c -1.09,-0.17 -1.84,-1.19 -1.67,-2.28 0.17,-1.09 1.2,-1.84 2.28,-1.67 l 63.34,9.79 c 1.09,0.17 1.84,1.19 1.67,2.28 -0.15,0.99 -1,1.69 -1.97,1.69 z"
       id="path633" />
    <path
       class="uuid-bebdd41e-5ead-43f9-85aa-9d596d4907af"
       d="m 1811.04,1655.71 c -0.1,0 -0.2,0 -0.29,-0.02 l -57.41,-8.47 c -1.09,-0.16 -1.85,-1.18 -1.69,-2.27 0.16,-1.09 1.19,-1.85 2.27,-1.69 l 57.41,8.47 c 1.09,0.16 1.85,1.18 1.69,2.27 -0.15,0.99 -1,1.71 -1.98,1.71 z"
       id="path634" />
    <path
       class="uuid-bebdd41e-5ead-43f9-85aa-9d596d4907af"
       d="m 1543,1332.04 c -0.09,0 -0.18,0 -0.28,-0.02 l -76.42,-10.64 c -1.09,-0.15 -1.86,-1.16 -1.71,-2.26 0.15,-1.1 1.16,-1.86 2.26,-1.71 l 76.42,10.64 c 1.09,0.15 1.86,1.16 1.71,2.26 -0.14,1 -1,1.72 -1.98,1.72 z"
       id="path635" />
    <path
       class="uuid-bebdd41e-5ead-43f9-85aa-9d596d4907af"
       d="m 1274.76,1331.38 c -0.09,0 -0.18,0 -0.28,-0.02 l -75.11,-10.35 c -1.09,-0.15 -1.86,-1.16 -1.71,-2.25 0.15,-1.1 1.17,-1.86 2.25,-1.71 l 75.11,10.35 c 1.09,0.15 1.86,1.16 1.71,2.25 -0.14,1 -1,1.73 -1.98,1.73 z"
       id="path636" />
    <path
       class="uuid-3c424c12-9101-4e1c-9424-d563c2e08fb4"
       d="m 1959.18,1655.05 c -1.1,0 -2,-0.9 -2,-2 v -332.33 c 0,-1.1 0.9,-2 2,-2 1.1,0 2,0.9 2,2 v 332.33 c 0,1.1 -0.9,2 -2,2 z"
       id="path770" />
    <g
       class="uuid-6de091d7-d539-4abd-86e6-f4dcbd87944d"
       id="g789">
      <g
         class="uuid-fc681e02-7c44-4bc5-9230-ce3fa6b1f55b"
         id="g771">
        <path
           class="uuid-3c424c12-9101-4e1c-9424-d563c2e08fb4"
           d="m 1959.94,1366.21 c -0.51,0 -1.02,-0.2 -1.41,-0.59 l -44.33,-44.33 c -0.78,-0.78 -0.78,-2.05 0,-2.83 0.78,-0.78 2.05,-0.78 2.83,0 l 44.33,44.33 c 0.78,0.78 0.78,2.05 0,2.83 -0.39,0.39 -0.9,0.59 -1.41,0.59 z"
           id="path771" />
      </g>
      <g
         class="uuid-fc681e02-7c44-4bc5-9230-ce3fa6b1f55b"
         id="g772">
        <path
           class="uuid-3c424c12-9101-4e1c-9424-d563c2e08fb4"
           d="m 1959.56,1343.81 c -0.51,0 -1.02,-0.2 -1.41,-0.59 l -22.02,-22.02 c -0.78,-0.78 -0.78,-2.05 0,-2.83 0.78,-0.78 2.05,-0.78 2.83,0 l 22.02,22.02 c 0.78,0.78 0.78,2.05 0,2.83 -0.39,0.39 -0.9,0.59 -1.41,0.59 z"
           id="path772" />
      </g>
      <g
         class="uuid-fc681e02-7c44-4bc5-9230-ce3fa6b1f55b"
         id="g773">
        <path
           class="uuid-3c424c12-9101-4e1c-9424-d563c2e08fb4"
           d="m 1960.31,1388.04 c -0.51,0 -1.02,-0.2 -1.41,-0.59 l -66.35,-66.35 c -0.78,-0.78 -0.78,-2.05 0,-2.83 0.78,-0.78 2.05,-0.78 2.83,0 l 66.35,66.35 c 0.78,0.78 0.78,2.05 0,2.83 -0.39,0.39 -0.9,0.59 -1.41,0.59 z"
           id="path773" />
      </g>
      <g
         class="uuid-fc681e02-7c44-4bc5-9230-ce3fa6b1f55b"
         id="g774">
        <path
           class="uuid-3c424c12-9101-4e1c-9424-d563c2e08fb4"
           d="m 1959.56,1410.25 c -0.51,0 -1.02,-0.2 -1.41,-0.59 l -77.08,-77.08 c -0.78,-0.78 -0.78,-2.05 0,-2.83 0.78,-0.78 2.05,-0.78 2.83,0 l 77.08,77.08 c 0.78,0.78 0.78,2.05 0,2.83 -0.39,0.39 -0.9,0.59 -1.41,0.59 z"
           id="path774" />
      </g>
      <g
         class="uuid-fc681e02-7c44-4bc5-9230-ce3fa6b1f55b"
         id="g775">
        <path
           class="uuid-3c424c12-9101-4e1c-9424-d563c2e08fb4"
           d="m 1959.56,1431.34 c -0.51,0 -1.02,-0.2 -1.41,-0.59 l -77.08,-77.08 c -0.78,-0.78 -0.78,-2.05 0,-2.83 0.78,-0.78 2.05,-0.78 2.83,0 l 77.08,77.08 c 0.78,0.78 0.78,2.05 0,2.83 -0.39,0.39 -0.9,0.59 -1.41,0.59 z"
           id="path775" />
      </g>
      <g
         class="uuid-fc681e02-7c44-4bc5-9230-ce3fa6b1f55b"
         id="g776">
        <path
           class="uuid-3c424c12-9101-4e1c-9424-d563c2e08fb4"
           d="m 1959.56,1452.42 c -0.51,0 -1.02,-0.2 -1.41,-0.59 l -77.08,-77.08 c -0.78,-0.78 -0.78,-2.05 0,-2.83 0.78,-0.78 2.05,-0.78 2.83,0 l 77.08,77.08 c 0.78,0.78 0.78,2.05 0,2.83 -0.39,0.39 -0.9,0.59 -1.41,0.59 z"
           id="path776" />
      </g>
      <g
         class="uuid-fc681e02-7c44-4bc5-9230-ce3fa6b1f55b"
         id="g777">
        <path
           class="uuid-3c424c12-9101-4e1c-9424-d563c2e08fb4"
           d="m 1959.56,1473.5 c -0.51,0 -1.02,-0.2 -1.41,-0.59 l -77.08,-77.08 c -0.78,-0.78 -0.78,-2.05 0,-2.83 0.78,-0.78 2.05,-0.78 2.83,0 l 77.08,77.08 c 0.78,0.78 0.78,2.05 0,2.83 -0.39,0.39 -0.9,0.59 -1.41,0.59 z"
           id="path777" />
      </g>
      <g
         class="uuid-fc681e02-7c44-4bc5-9230-ce3fa6b1f55b"
         id="g778">
        <path
           class="uuid-3c424c12-9101-4e1c-9424-d563c2e08fb4"
           d="m 1959.56,1494.58 c -0.51,0 -1.02,-0.2 -1.41,-0.59 l -77.08,-77.08 c -0.78,-0.78 -0.78,-2.05 0,-2.83 0.78,-0.78 2.05,-0.78 2.83,0 l 77.08,77.08 c 0.78,0.78 0.78,2.05 0,2.83 -0.39,0.39 -0.9,0.59 -1.41,0.59 z"
           id="path778" />
      </g>
      <g
         class="uuid-fc681e02-7c44-4bc5-9230-ce3fa6b1f55b"
         id="g779">
        <path
           class="uuid-3c424c12-9101-4e1c-9424-d563c2e08fb4"
           d="m 1959.56,1515.67 c -0.51,0 -1.02,-0.2 -1.41,-0.59 L 1881.07,1438 c -0.78,-0.78 -0.78,-2.05 0,-2.83 0.78,-0.78 2.05,-0.78 2.83,0 l 77.08,77.08 c 0.78,0.78 0.78,2.05 0,2.83 -0.39,0.39 -0.9,0.59 -1.41,0.59 z"
           id="path779" />
      </g>
      <g
         class="uuid-fc681e02-7c44-4bc5-9230-ce3fa6b1f55b"
         id="g780">
        <path
           class="uuid-3c424c12-9101-4e1c-9424-d563c2e08fb4"
           d="m 1959.56,1536.75 c -0.51,0 -1.02,-0.2 -1.41,-0.59 l -77.08,-77.08 c -0.78,-0.78 -0.78,-2.05 0,-2.83 0.78,-0.78 2.05,-0.78 2.83,0 l 77.08,77.08 c 0.78,0.78 0.78,2.05 0,2.83 -0.39,0.39 -0.9,0.59 -1.41,0.59 z"
           id="path780" />
      </g>
      <g
         class="uuid-fc681e02-7c44-4bc5-9230-ce3fa6b1f55b"
         id="g781">
        <path
           class="uuid-3c424c12-9101-4e1c-9424-d563c2e08fb4"
           d="m 1959.56,1557.83 c -0.51,0 -1.02,-0.2 -1.41,-0.59 l -77.08,-77.08 c -0.78,-0.78 -0.78,-2.05 0,-2.83 0.78,-0.78 2.05,-0.78 2.83,0 l 77.08,77.08 c 0.78,0.78 0.78,2.05 0,2.83 -0.39,0.39 -0.9,0.59 -1.41,0.59 z"
           id="path781" />
      </g>
      <g
         class="uuid-fc681e02-7c44-4bc5-9230-ce3fa6b1f55b"
         id="g782">
        <path
           class="uuid-3c424c12-9101-4e1c-9424-d563c2e08fb4"
           d="m 1958.62,1577.97 c -0.51,0 -1.02,-0.2 -1.41,-0.59 l -76.14,-76.14 c -0.78,-0.78 -0.78,-2.05 0,-2.83 0.78,-0.78 2.05,-0.78 2.83,0 l 76.14,76.14 c 0.78,0.78 0.78,2.05 0,2.83 -0.39,0.39 -0.9,0.59 -1.41,0.59 z"
           id="path782" />
      </g>
      <g
         class="uuid-fc681e02-7c44-4bc5-9230-ce3fa6b1f55b"
         id="g783">
        <path
           class="uuid-3c424c12-9101-4e1c-9424-d563c2e08fb4"
           d="m 1959.09,1599.52 c -0.51,0 -1.02,-0.2 -1.41,-0.59 l -76.61,-76.61 c -0.78,-0.78 -0.78,-2.05 0,-2.83 0.78,-0.78 2.05,-0.78 2.83,0 l 76.61,76.61 c 0.78,0.78 0.78,2.05 0,2.83 -0.39,0.39 -0.9,0.59 -1.41,0.59 z"
           id="path783" />
      </g>
      <g
         class="uuid-fc681e02-7c44-4bc5-9230-ce3fa6b1f55b"
         id="g784">
        <path
           class="uuid-3c424c12-9101-4e1c-9424-d563c2e08fb4"
           d="m 1959.09,1620.42 c -0.51,0 -1.02,-0.2 -1.41,-0.59 l -76.61,-76.61 c -0.78,-0.78 -0.78,-2.05 0,-2.83 0.78,-0.78 2.05,-0.78 2.83,0 l 76.61,76.61 c 0.78,0.78 0.78,2.05 0,2.83 -0.39,0.39 -0.9,0.59 -1.41,0.59 z"
           id="path784" />
      </g>
      <g
         class="uuid-fc681e02-7c44-4bc5-9230-ce3fa6b1f55b"
         id="g785">
        <path
           class="uuid-3c424c12-9101-4e1c-9424-d563c2e08fb4"
           d="m 1959.09,1641.31 c -0.51,0 -1.02,-0.2 -1.41,-0.59 l -76.61,-76.61 c -0.78,-0.78 -0.78,-2.05 0,-2.83 0.78,-0.78 2.05,-0.78 2.83,0 l 76.61,76.61 c 0.78,0.78 0.78,2.05 0,2.83 -0.39,0.39 -0.9,0.59 -1.41,0.59 z"
           id="path785" />
      </g>
      <g
         class="uuid-fc681e02-7c44-4bc5-9230-ce3fa6b1f55b"
         id="g786">
        <path
           class="uuid-3c424c12-9101-4e1c-9424-d563c2e08fb4"
           d="m 1952.59,1655.71 c -0.51,0 -1.02,-0.2 -1.41,-0.59 L 1881.06,1585 c -0.78,-0.78 -0.78,-2.05 0,-2.83 0.78,-0.78 2.05,-0.78 2.83,0 l 70.12,70.12 c 0.78,0.78 0.78,2.05 0,2.83 -0.39,0.39 -0.9,0.59 -1.41,0.59 z"
           id="path786" />
      </g>
      <g
         class="uuid-fc681e02-7c44-4bc5-9230-ce3fa6b1f55b"
         id="g787">
        <path
           class="uuid-3c424c12-9101-4e1c-9424-d563c2e08fb4"
           d="m 1931.51,1655.52 c -0.51,0 -1.02,-0.2 -1.41,-0.59 l -49.04,-49.04 c -0.78,-0.78 -0.78,-2.05 0,-2.83 0.78,-0.78 2.05,-0.78 2.83,0 l 49.04,49.04 c 0.78,0.78 0.78,2.05 0,2.83 -0.39,0.39 -0.9,0.59 -1.41,0.59 z"
           id="path787" />
      </g>
      <g
         class="uuid-fc681e02-7c44-4bc5-9230-ce3fa6b1f55b"
         id="g788">
        <path
           class="uuid-3c424c12-9101-4e1c-9424-d563c2e08fb4"
           d="m 1910.81,1655.71 c -0.51,0 -1.02,-0.2 -1.41,-0.59 l -28.33,-28.33 c -0.78,-0.78 -0.78,-2.05 0,-2.83 0.78,-0.78 2.05,-0.78 2.83,0 l 28.33,28.33 c 0.78,0.78 0.78,2.05 0,2.83 -0.39,0.39 -0.9,0.59 -1.41,0.59 z"
           id="path788" />
      </g>
    </g>
  </g>
</svg>
